<?xml version="1.0" standalone="no"?>
<!DOCTYPE svg PUBLIC "-//W3C//DTD SVG 20010904//EN"
 "http://www.w3.org/TR/2001/REC-SVG-20010904/DTD/svg10.dtd">
<svg version="1.0" xmlns="http://www.w3.org/2000/svg"
 width="945.000000pt" height="945.000000pt" viewBox="0 0 945.000000 945.000000"
 preserveAspectRatio="xMidYMid meet">
<metadata>
Created by potrace 1.14, written by Peter Selinger 2001-2017
</metadata>
<g transform="translate(0.000000,945.000000) scale(0.100000,-0.100000)"
fill="#000000" stroke="none">
<path d="M2700 8444 c0 -6 -12 -10 -27 -9 -16 1 -33 -2 -40 -7 -7 -6 -16 -7
-21 -4 -5 3 -9 -1 -9 -9 0 -10 5 -11 17 -5 12 6 17 5 17 -5 0 -8 -4 -12 -8 -9
-4 2 -20 -1 -35 -6 -24 -9 -25 -9 -14 5 7 8 10 18 6 22 -3 3 -6 1 -6 -6 0 -7
-8 -11 -18 -9 -11 2 -26 -3 -35 -11 -11 -9 -17 -10 -17 -2 0 6 -5 11 -11 11
-6 0 -9 -6 -6 -13 6 -15 -47 -17 -60 -2 -5 4 -2 5 5 1 6 -4 12 -2 12 3 0 18
-19 12 -30 -9 -6 -11 -16 -17 -25 -14 -8 4 -13 10 -10 14 3 5 2 11 -3 14 -16
9 -9 -29 7 -42 13 -11 12 -11 -8 -1 -21 10 -23 9 -18 -5 4 -11 3 -15 -4 -11
-5 4 -7 16 -4 28 5 17 4 18 -4 8 -7 -11 -13 -12 -24 -3 -11 9 -14 9 -14 -3 0
-8 4 -12 8 -9 4 2 10 0 14 -6 4 -6 -5 -10 -20 -10 -17 0 -24 4 -19 12 4 7 3 8
-4 4 -7 -4 -12 -15 -13 -24 0 -14 -2 -13 -9 3 -5 11 -9 14 -9 7 -1 -9 -6 -10
-20 -2 -14 7 -22 7 -26 0 -4 -6 -10 -8 -15 -5 -5 3 -11 1 -15 -5 -4 -6 -12 -7
-18 -4 -7 4 -8 3 -4 -1 10 -12 38 -15 31 -4 -8 14 2 11 15 -5 9 -10 7 -13 -6
-13 -34 0 -44 -3 -39 -11 2 -4 -4 -9 -15 -9 -18 -2 -19 0 -7 15 12 15 11 16
-5 3 -16 -13 -20 -13 -28 0 -5 8 -9 9 -9 4 0 -6 6 -17 13 -24 10 -11 8 -11
-10 -2 -16 8 -23 8 -23 1 0 -6 -5 -8 -10 -5 -6 4 -7 11 -4 17 5 7 2 8 -6 3
-10 -6 -8 -13 11 -28 16 -13 18 -18 7 -14 -10 4 -18 3 -18 -1 0 -4 -9 -8 -20
-9 -13 -1 -18 2 -14 9 4 6 2 8 -4 4 -6 -3 -9 -15 -7 -26 2 -11 -1 -23 -7 -26
-6 -4 -8 -3 -5 3 4 6 0 13 -7 16 -10 4 -14 0 -11 -13 2 -11 0 -22 -6 -25 -5
-4 -9 2 -10 12 0 11 -3 13 -6 5 -2 -6 -10 -9 -16 -5 -7 4 -8 0 -3 -12 7 -18 6
-18 -13 -1 -13 11 -21 14 -26 6 -3 -6 -1 -9 6 -8 6 2 14 -3 17 -11 3 -10 0
-12 -11 -8 -11 4 -15 1 -12 -12 2 -14 -1 -17 -14 -14 -11 3 -21 -2 -24 -11 -4
-10 -1 -13 9 -9 7 3 14 0 14 -7 0 -6 -4 -9 -9 -5 -5 3 -12 1 -15 -4 -3 -5 -19
-7 -35 -6 -29 2 -29 2 -15 -20 10 -16 12 -25 4 -30 -6 -3 -9 -1 -8 6 2 6 -3
14 -10 16 -7 3 -10 -1 -6 -10 3 -8 0 -18 -5 -22 -6 -3 -9 -10 -6 -14 2 -5 -6
-7 -19 -6 -13 2 -23 -2 -23 -10 0 -7 7 -11 16 -8 11 3 11 1 -2 -7 -14 -9 -22
-9 -35 1 -14 11 -15 11 -4 -1 16 -19 15 -33 -2 -27 -10 4 -13 -3 -12 -27 1
-23 -3 -32 -11 -29 -7 3 -10 10 -7 17 3 6 -1 3 -10 -7 -8 -11 -12 -26 -8 -35
5 -15 4 -16 -13 -2 -17 14 -18 14 -6 -8 14 -26 5 -45 -9 -22 -8 13 -10 12 -10
-2 0 -9 6 -19 13 -21 6 -3 1 -6 -13 -6 -21 -1 -22 -3 -10 -12 12 -9 10 -10 -9
-5 -18 4 -21 2 -12 -7 16 -16 14 -30 -4 -23 -13 4 -14 2 -5 -14 9 -16 8 -20
-7 -20 -15 0 -16 -2 -3 -10 9 -6 20 -5 30 3 13 10 13 10 2 -4 -7 -10 -23 -15
-40 -13 -15 2 -21 1 -14 -2 18 -9 15 -24 -5 -17 -10 4 -14 2 -10 -4 4 -6 1
-14 -5 -17 -7 -3 -2 -4 12 -1 14 3 19 2 12 -1 -6 -3 -9 -11 -6 -16 4 -7 2 -8
-4 -4 -7 4 -12 2 -12 -3 0 -6 8 -11 18 -11 16 -1 16 -1 -1 -11 -9 -5 -21 -8
-26 -4 -5 3 -13 0 -17 -6 -4 -8 -3 -9 4 -5 7 4 12 2 12 -4 0 -6 4 -9 8 -6 5 3
9 -1 9 -9 0 -8 -4 -12 -9 -9 -4 3 -17 2 -29 -1 -20 -7 -20 -7 -2 -22 10 -8 13
-12 6 -9 -6 4 -14 2 -18 -4 -3 -5 0 -10 7 -10 9 0 9 -3 -2 -10 -10 -6 -11 -10
-2 -10 6 0 12 -5 12 -11 0 -5 -6 -7 -12 -3 -8 5 -7 0 2 -11 9 -11 10 -16 3
-11 -9 4 -13 1 -13 -9 0 -11 -5 -15 -15 -12 -11 5 -12 1 -5 -18 5 -14 7 -25 4
-25 -4 0 0 -8 7 -17 11 -15 11 -16 -1 -5 -8 6 -21 12 -29 12 -13 -1 -13 -2 2
-11 9 -5 17 -15 17 -20 0 -6 -4 -8 -8 -5 -4 2 -14 1 -21 -3 -10 -6 -9 -10 4
-14 11 -5 14 -3 9 6 -4 6 -3 8 1 4 5 -4 10 -22 11 -39 2 -22 0 -28 -6 -18 -5
8 -6 18 -3 24 3 5 1 6 -5 2 -7 -4 -8 -17 -2 -35 9 -32 -6 -72 -30 -79 -11 -4
-9 2 5 19 l20 24 -20 -15 c-11 -8 -23 -19 -27 -25 -5 -7 -8 -6 -8 1 0 6 -13
10 -30 10 -29 0 -45 -18 -34 -39 3 -7 -3 -2 -13 11 -17 21 -20 21 -38 7 -19
-16 -19 -16 3 -5 15 7 22 7 22 0 0 -5 -7 -10 -15 -10 -8 0 -15 -4 -15 -9 0 -6
-9 -8 -20 -6 -11 2 -22 0 -25 -4 -2 -5 -16 -6 -29 -4 -31 6 -99 -33 -89 -50 4
-7 -1 -6 -10 2 -14 11 -20 11 -33 1 -12 -11 -15 -11 -12 -1 2 9 -11 14 -43 15
-34 1 -45 -2 -42 -11 3 -7 0 -13 -6 -13 -6 0 -11 4 -11 10 0 5 -9 2 -19 -7
-11 -9 -18 -21 -15 -27 3 -6 -1 -3 -9 6 -13 17 -15 16 -25 -5 -6 -12 -11 -16
-11 -9 -1 6 -6 12 -12 12 -6 0 -9 -7 -6 -14 4 -11 1 -13 -11 -9 -9 4 -20 11
-25 17 -4 6 -5 -2 -3 -19 5 -29 4 -29 -10 -10 -15 20 -16 20 -12 -4 2 -15 -3
-26 -12 -28 -13 -4 -13 -3 0 6 13 9 13 11 -2 11 -9 0 -21 -7 -26 -16 -5 -9
-13 -17 -18 -17 -5 -1 -8 -5 -6 -9 1 -5 -2 -8 -8 -8 -13 0 -13 6 1 31 5 11 14
17 20 14 5 -4 9 -1 9 4 0 20 -19 11 -37 -16 -19 -30 -43 -52 -57 -53 -5 0 -5
6 0 13 5 7 2 5 -8 -5 -21 -23 -29 -23 -22 0 5 14 4 15 -5 2 -6 -9 -7 -18 -1
-24 13 -13 13 -29 1 -21 -5 3 -12 1 -15 -4 -4 -5 -19 -8 -34 -6 -26 4 -26 4
-5 -7 36 -17 27 -25 -24 -23 -27 2 -40 1 -31 -2 10 -2 18 -9 18 -14 0 -6 -10
-8 -22 -5 -13 3 -17 3 -10 0 6 -3 12 -10 12 -15 0 -6 -5 -7 -12 -3 -7 5 -9 2
-5 -8 4 -11 0 -15 -11 -13 -23 3 -33 -16 -19 -35 9 -12 9 -13 -3 -2 -17 14
-34 16 -25 2 3 -5 2 -10 -4 -10 -5 0 -12 6 -14 13 -3 6 -6 -3 -6 -22 -1 -32
-2 -33 -18 -14 -10 10 -14 13 -9 6 10 -15 -11 -63 -27 -63 -6 0 -2 9 7 19 14
15 15 21 4 27 -7 4 -10 4 -6 -1 4 -4 1 -14 -7 -21 -8 -8 -12 -23 -10 -33 3
-15 -1 -18 -18 -14 -13 3 -18 1 -12 -4 15 -11 13 -30 -5 -45 -12 -11 -12 -11
-2 3 6 9 9 19 5 22 -9 9 -23 9 -22 0 3 -21 -2 -33 -15 -33 -8 0 -18 -5 -22
-12 -4 -6 -3 -8 4 -4 7 4 10 -5 9 -29 -2 -38 -6 -41 -26 -22 -11 10 -13 10 -7
0 5 -8 1 -13 -11 -13 -14 -1 -13 -4 7 -16 14 -8 18 -13 10 -11 -8 2 -21 -3
-28 -12 -11 -14 -11 -14 -6 2 3 9 2 17 -4 17 -14 0 -9 -24 8 -45 7 -9 9 -15 4
-14 -20 3 -28 -2 -16 -10 11 -7 10 -9 -3 -14 -9 -4 -13 -3 -10 3 3 6 2 10 -3
10 -10 0 -23 -31 -26 -67 -2 -13 2 -20 8 -17 6 3 0 -5 -14 -17 -17 -16 -20
-20 -7 -16 10 4 16 3 12 -2 -3 -5 1 -12 7 -15 7 -3 4 -5 -7 -3 -24 2 -33 -16
-9 -19 9 -1 19 -6 22 -9 4 -4 0 -6 -8 -5 -31 5 -47 0 -47 -15 0 -12 3 -12 16
-2 14 10 14 10 4 -4 -7 -9 -10 -19 -6 -23 4 -4 0 -4 -8 -1 -12 4 -15 0 -13
-17 1 -13 3 -27 3 -32 1 -5 9 -2 19 5 16 13 16 13 0 -7 -10 -11 -19 -36 -20
-55 -2 -18 -7 -38 -13 -42 -6 -5 -4 -7 5 -4 8 2 14 10 12 16 -1 7 2 10 7 6 12
-7 3 -35 -11 -35 -6 0 -3 -11 6 -25 15 -22 15 -24 0 -18 -14 5 -15 3 -5 -15 9
-17 9 -22 -1 -22 -8 0 -6 -5 4 -11 15 -8 16 -13 5 -32 -6 -12 -16 -26 -22 -30
-6 -5 -3 -7 7 -3 10 3 20 1 23 -4 4 -6 0 -10 -7 -10 -9 0 -13 -13 -12 -37 1
-21 -3 -44 -9 -51 -6 -7 -6 -12 -1 -11 21 4 26 -2 14 -16 -7 -9 -10 -18 -6
-22 3 -3 6 -1 6 5 0 7 5 12 10 12 7 0 7 -6 0 -19 -13 -25 -13 -34 0 -26 6 3
10 1 10 -4 0 -6 -6 -11 -12 -11 -7 -1 -2 -7 12 -16 l25 -15 -25 7 c-24 6 -24
5 -6 -8 11 -9 16 -20 12 -27 -5 -7 1 -20 15 -32 14 -12 17 -19 8 -19 -11 0
-12 -2 -1 -9 19 -11 19 -15 3 -35 -8 -9 -11 -19 -7 -23 3 -3 6 -1 6 5 0 7 4
12 8 12 4 0 8 -9 8 -19 0 -11 -4 -18 -7 -15 -4 2 -11 -1 -15 -7 -4 -8 -3 -9 4
-5 7 4 12 2 12 -4 0 -6 5 -8 13 -4 8 5 8 2 -2 -9 -7 -9 -10 -17 -5 -17 5 0 2
-5 -6 -11 -13 -9 -13 -10 0 -6 8 2 14 10 12 17 -2 10 0 11 11 2 8 -7 16 -11
18 -9 2 1 1 -2 -3 -7 -3 -5 -2 -19 3 -33 5 -15 5 -22 0 -18 -5 3 -13 0 -17 -6
-4 -8 -3 -9 4 -5 7 4 12 1 12 -8 0 -9 5 -16 11 -16 5 0 8 4 5 8 -3 5 1 9 8 9
7 0 13 -6 13 -13 0 -7 -4 -11 -8 -8 -4 2 -10 0 -14 -6 -3 -5 -1 -10 5 -10 6 0
8 -5 4 -12 -6 -10 -5 -10 8 -1 21 18 31 3 12 -18 -14 -16 -14 -18 5 -28 12 -7
18 -17 15 -26 -4 -8 -11 -12 -17 -8 -6 3 -7 1 -3 -6 6 -9 11 -9 22 0 12 10 13
9 8 -6 -5 -11 -3 -16 2 -12 6 3 16 1 24 -5 12 -8 12 -9 -2 -4 -10 3 -18 1 -18
-4 0 -6 5 -10 10 -10 6 0 10 -5 10 -11 0 -5 -5 -7 -12 -3 -6 4 -8 3 -4 -4 3
-6 15 -9 25 -7 10 2 18 -3 18 -10 0 -7 -9 -11 -21 -8 -12 2 -7 -2 10 -10 26
-12 31 -20 27 -40 -3 -17 3 -33 24 -55 45 -50 54 -62 45 -62 -5 0 -17 10 -26
23 -15 20 -16 20 -7 1 6 -12 7 -25 3 -29 -4 -3 0 -5 8 -3 10 2 15 -4 14 -18
-1 -11 4 -21 10 -22 28 -2 47 -9 58 -20 8 -8 5 -10 -15 -7 -14 3 -29 0 -33 -6
-4 -7 -3 -9 4 -6 15 10 43 -3 35 -17 -3 -6 4 -2 18 9 13 11 18 13 12 5 -15
-17 -17 -34 -3 -25 6 4 7 -1 3 -11 -5 -13 -3 -15 8 -9 12 7 12 6 1 -7 -10 -13
-10 -18 -1 -24 8 -4 9 -3 5 4 -4 7 -3 12 2 12 13 0 23 -27 16 -45 -4 -8 -1
-15 6 -15 6 0 8 5 5 10 -3 6 1 10 9 10 9 0 17 -7 17 -15 3 -30 27 -87 28 -65
1 9 -4 21 -11 28 -9 9 -8 12 7 12 10 0 16 -3 12 -6 -3 -3 -2 -16 3 -29 6 -15
4 -27 -3 -36 -7 -7 -1 -5 12 6 14 11 21 14 17 8 -4 -7 -3 -13 1 -13 5 0 14
-12 20 -27 7 -16 11 -21 10 -13 -1 9 2 15 8 15 5 0 9 -6 7 -12 -2 -7 3 -13 9
-13 7 0 4 -7 -7 -15 -13 -10 -14 -13 -3 -9 17 6 92 -59 81 -71 -3 -3 2 -3 13
1 14 6 17 4 12 -9 -4 -11 -2 -14 9 -10 8 3 14 2 13 -3 -4 -23 3 -25 22 -8 22
19 22 19 9 -2 -12 -19 -11 -24 3 -39 9 -9 17 -13 17 -9 0 4 12 -5 26 -20 15
-14 33 -26 41 -26 9 0 13 -6 10 -14 -8 -20 3 -27 24 -16 14 8 20 6 29 -12 11
-22 10 -22 -4 -4 -14 17 -16 18 -16 3 0 -9 3 -17 8 -18 4 0 15 -2 24 -4 11 -2
15 2 12 13 -5 14 -4 14 6 -1 6 -9 9 -21 6 -25 -2 -4 2 -16 10 -27 8 -11 14
-14 14 -6 0 11 3 11 18 0 15 -13 16 -12 3 4 -8 9 -11 20 -7 24 3 3 6 1 6 -5 0
-7 7 -12 16 -12 9 0 12 -5 8 -12 -5 -7 -2 -9 9 -5 10 4 23 -3 36 -21 18 -23
22 -25 31 -12 9 12 10 10 5 -9 -6 -18 -4 -22 6 -15 11 6 10 3 -1 -12 -8 -10
-11 -16 -6 -12 5 4 15 0 23 -8 10 -9 19 -11 27 -6 13 11 47 12 40 1 -2 -4 -1
-9 3 -12 5 -2 3 -3 -3 -1 -6 1 -17 -2 -25 -7 -9 -6 1 -7 29 -5 41 4 43 3 38
-17 -5 -21 -5 -21 9 -3 15 20 15 20 16 0 1 -10 0 -23 -1 -29 -1 -5 2 -7 5 -3
4 4 20 1 36 -7 20 -11 30 -12 35 -3 5 7 3 8 -6 3 -8 -5 -11 -4 -7 3 8 11 57
-7 57 -21 0 -5 5 -5 12 -1 7 4 8 3 4 -5 -6 -9 -11 -9 -21 -1 -9 8 -14 7 -18
-2 -3 -9 6 -14 27 -15 55 -3 76 -7 76 -15 0 -4 5 -8 11 -8 5 0 7 5 4 11 -4 6
2 5 13 -2 12 -7 18 -17 15 -22 -3 -5 -9 -3 -14 4 -7 11 -9 10 -9 -3 0 -9 5
-20 10 -23 6 -3 10 -2 10 3 0 22 31 21 40 -1 8 -20 9 -21 10 -2 1 11 4 14 7 8
2 -7 9 -13 14 -13 6 0 7 5 3 12 -5 7 -3 8 5 4 7 -5 10 -10 7 -13 -3 -4 4 -14
16 -24 27 -24 34 -24 18 -1 -7 9 0 4 16 -13 15 -16 25 -23 22 -14 -5 13 -2 16
14 11 11 -3 24 1 30 9 8 11 9 11 5 -2 -3 -9 6 -27 22 -42 25 -23 30 -24 53
-13 24 13 25 12 20 -8 l-5 -21 19 20 c10 12 15 15 10 8 -11 -17 15 -18 33 0
10 10 12 9 9 -3 -2 -9 3 -14 11 -12 12 3 12 0 1 -12 -7 -9 -11 -16 -9 -17 32
-7 68 -5 63 3 -4 6 -2 8 4 4 5 -3 12 -3 15 1 2 5 2 2 1 -4 -4 -17 8 -17 25 0
11 9 13 9 7 0 -4 -7 -2 -13 4 -13 6 0 8 -6 4 -12 -4 -8 -3 -10 2 -5 5 5 9 13
9 18 0 15 9 14 38 -6 15 -10 26 -24 23 -31 -3 -7 -1 -16 5 -19 5 -4 9 -3 8 2
-3 19 2 33 12 33 5 0 7 -5 4 -10 -3 -5 -1 -10 5 -10 6 0 8 -5 4 -12 -6 -10 -4
-10 7 -2 20 16 78 23 73 9 -3 -6 6 -11 20 -11 14 0 22 4 19 10 -4 5 1 7 10 3
10 -4 17 -1 17 5 0 6 3 8 6 5 4 -4 1 -14 -7 -23 -13 -16 -12 -16 11 -4 14 7
28 18 32 24 5 7 8 7 8 -2 0 -7 5 -10 12 -6 6 4 8 3 5 -3 -10 -17 23 -55 44
-50 10 3 23 -1 30 -9 7 -9 8 -14 1 -14 -6 0 -13 6 -16 13 -4 6 -4 2 -2 -10 3
-17 0 -20 -13 -15 -14 5 -14 3 -3 -10 9 -11 10 -18 2 -23 -6 -3 -7 -11 -4 -17
4 -7 2 -8 -5 -4 -9 6 -9 11 1 23 12 15 11 15 -9 2 -13 -8 -18 -16 -12 -20 6
-3 11 -10 12 -15 1 -5 6 -8 12 -6 5 2 2 -5 -6 -15 -9 -10 -14 -24 -11 -32 2
-8 0 -11 -5 -8 -6 4 -19 0 -29 -8 -19 -13 -18 -13 1 -12 12 1 19 -3 17 -11 -1
-8 2 -11 8 -7 6 3 7 11 4 17 -4 6 -2 8 4 4 5 -3 12 -3 15 1 5 10 -1 -12 -10
-34 -6 -16 -5 -16 10 -4 19 15 33 9 22 -8 -3 -6 -11 -9 -16 -6 -5 4 -9 1 -9
-6 0 -9 -3 -9 -14 1 -13 10 -13 8 -3 -14 10 -21 13 -23 19 -8 5 12 6 9 5 -9
-1 -17 -6 -25 -14 -22 -8 3 -11 -3 -8 -18 3 -13 -3 -31 -13 -42 -16 -19 -16
-20 5 -8 17 8 23 8 29 -1 4 -7 4 -10 -1 -6 -10 9 -37 -11 -30 -22 3 -4 -3 -14
-13 -21 -15 -12 -16 -12 -4 2 10 14 10 18 -3 23 -11 4 -14 2 -9 -6 4 -6 -2
-18 -12 -26 -16 -13 -17 -14 -1 -9 9 4 17 2 17 -3 0 -6 -6 -10 -12 -10 -9 0
-9 -3 -2 -8 6 -4 14 -16 17 -27 l7 -20 -16 20 c-15 20 -16 19 -12 -5 2 -14 10
-28 18 -32 12 -5 11 -7 -3 -7 -10 -1 -16 -5 -12 -11 3 -5 13 -7 23 -4 15 5 15
4 -1 -6 -14 -9 -22 -9 -34 2 -15 12 -15 10 0 -13 10 -14 14 -29 10 -34 -5 -4
-3 -6 2 -2 6 3 21 -1 35 -9 25 -15 25 -15 -10 -9 l-35 6 33 -17 c17 -9 32 -21
32 -27 0 -7 -4 -7 -12 1 -7 7 -21 12 -32 12 -19 -1 -19 -2 4 -16 14 -8 18 -13
9 -11 -12 4 -14 -1 -11 -24 2 -16 9 -29 14 -29 5 0 6 -5 3 -10 -4 -6 -10 -8
-15 -5 -5 3 -12 0 -16 -7 -4 -7 -4 -10 1 -6 4 4 14 0 22 -10 12 -16 13 -15 6
3 -3 11 -3 17 2 13 9 -8 16 -78 8 -78 -2 0 -14 5 -26 11 -14 7 -12 2 8 -14
l30 -25 -27 5 c-18 3 -28 1 -28 -6 0 -7 5 -9 10 -6 6 3 10 1 10 -5 0 -6 4 -8
10 -5 6 3 7 -1 3 -10 -5 -13 -7 -14 -14 -3 -12 18 -27 -5 -23 -38 1 -13 -2
-22 -6 -19 -5 3 -11 1 -14 -4 -4 -5 -2 -12 3 -16 6 -3 7 -15 1 -29 -7 -20 -5
-23 13 -22 17 1 21 -4 19 -21 -2 -12 1 -24 7 -27 5 -3 7 3 4 14 -3 11 0 20 6
20 6 0 11 -6 11 -14 0 -8 7 -16 15 -20 8 -3 14 -11 13 -18 -2 -7 2 -12 9 -13
6 0 15 -4 20 -9 4 -5 3 -6 -3 -3 -13 8 -28 -20 -15 -27 12 -8 1 -55 -13 -52
-6 2 -8 1 -3 -1 4 -3 5 -9 1 -14 -3 -5 -2 -9 3 -8 20 3 23 -2 13 -23 -11 -22
-10 -22 4 -4 12 14 13 23 5 33 -8 9 -8 13 0 13 6 0 11 -5 11 -11 0 -5 5 -7 10
-4 6 4 9 2 8 -4 -2 -5 6 -17 17 -26 20 -16 20 -16 -2 -5 -19 9 -23 8 -23 -5 0
-9 4 -14 9 -10 15 8 21 -9 9 -25 -8 -12 -9 -12 -4 3 4 11 2 16 -5 12 -5 -4 -8
-20 -5 -37 3 -22 1 -28 -9 -24 -7 2 -19 -3 -27 -12 -11 -15 -11 -15 3 -4 13
10 19 9 29 -3 7 -8 9 -15 4 -15 -5 0 -2 -5 6 -11 13 -9 13 -10 0 -6 -8 2 -14
10 -13 16 2 6 -1 11 -5 11 -5 0 -8 -17 -6 -37 2 -21 3 -46 3 -55 1 -22 43 -33
69 -19 14 7 23 8 27 1 3 -5 11 -10 17 -10 6 0 5 7 -3 18 -13 16 -12 16 6 1 11
-9 27 -14 35 -11 8 2 12 2 9 -2 -4 -4 -17 -9 -29 -11 -12 -2 -25 -7 -29 -10
-3 -4 6 -4 20 -2 14 3 32 1 40 -5 11 -8 10 -9 -3 -4 -10 3 -18 1 -18 -5 0 -6
-5 -7 -11 -3 -16 10 11 -38 30 -54 14 -11 14 -11 -1 -6 -10 3 -18 1 -18 -5 0
-6 5 -11 10 -11 6 0 10 -12 10 -26 0 -14 -4 -23 -10 -19 -5 3 -7 12 -4 19 3 7
-2 16 -12 20 -14 5 -15 4 -4 -9 7 -8 9 -15 5 -15 -4 0 -2 -6 5 -14 6 -8 17
-13 25 -10 7 3 16 0 20 -5 3 -6 11 -9 16 -5 5 3 9 2 8 -3 -4 -16 18 -56 24
-46 4 6 16 9 28 6 15 -4 17 -8 8 -14 -8 -4 -16 -3 -20 3 -4 6 -6 -3 -6 -19 2
-29 17 -37 34 -18 4 4 3 5 -3 2 -6 -3 -11 0 -11 8 0 18 14 20 20 3 7 -24 -4
-47 -21 -41 -11 3 -9 -1 5 -11 12 -9 27 -14 35 -13 7 2 9 2 5 -1 -4 -2 -2 -11
5 -20 12 -15 11 -16 -5 -3 -9 8 -20 11 -24 7 -3 -3 -1 -6 6 -6 7 0 10 -4 7 -9
-3 -4 7 -8 22 -7 21 1 27 -4 27 -19 0 -11 5 -19 10 -17 6 1 10 11 10 21 0 11
4 23 8 27 4 5 5 0 1 -10 -5 -14 -4 -17 5 -11 10 6 11 3 2 -13 -16 -30 -14 -36
7 -21 15 12 16 12 5 -2 -7 -9 -9 -20 -5 -25 4 -4 -1 -2 -10 5 -10 7 -18 10
-18 6 0 -4 -8 -1 -17 6 -16 12 -17 12 -6 -2 7 -9 9 -20 5 -25 -4 -4 0 -3 9 4
14 10 18 10 23 -3 3 -9 2 -13 -4 -10 -6 3 -10 1 -10 -4 0 -15 23 -14 40 2 8 6
7 3 -2 -8 -12 -15 -14 -25 -7 -38 6 -9 15 -14 21 -11 7 4 8 2 4 -4 -4 -7 -1
-12 8 -12 8 0 17 6 19 13 4 9 6 9 6 -1 1 -7 5 -11 10 -7 12 7 64 -16 54 -24
-4 -3 -14 -17 -22 -31 -7 -14 -10 -22 -6 -18 8 7 40 -20 40 -33 0 -4 4 -11 8
-16 5 -4 7 -1 5 7 -4 17 19 20 47 7 18 -9 19 -9 6 7 -8 9 -20 15 -28 12 -9 -4
-11 -1 -7 6 5 7 0 9 -14 6 -14 -4 -20 -2 -15 4 3 6 1 8 -5 4 -6 -3 -13 -2 -17
3 -8 13 41 4 77 -15 29 -15 29 -15 23 13 -3 17 -2 21 2 12 5 -9 16 -15 26 -13
9 1 15 -2 11 -7 -3 -5 -1 -9 5 -9 6 0 8 -8 5 -17 -5 -15 -4 -15 4 -4 11 16 46
25 36 10 -3 -5 -11 -6 -17 -2 -7 4 -5 -1 2 -11 14 -17 16 -17 29 1 12 14 13
15 9 2 -3 -9 1 -26 8 -37 8 -10 12 -22 9 -24 -2 -3 8 -5 23 -4 25 1 28 -2 25
-26 -2 -16 1 -28 7 -28 6 0 8 8 4 18 -7 18 -5 17 17 -12 8 -11 10 -17 3 -13
-6 4 -15 3 -18 -3 -4 -6 -1 -9 7 -8 7 2 12 -3 10 -10 -1 -8 2 -11 8 -7 6 3 7
11 4 17 -4 6 -1 9 7 6 8 -3 13 -12 13 -21 -1 -9 4 -13 12 -10 11 4 11 10 2 26
-10 20 -10 21 5 9 9 -8 22 -10 28 -6 7 4 9 3 5 -4 -3 -6 1 -15 10 -20 15 -8
15 -10 0 -15 -10 -4 -15 -3 -12 2 4 5 -4 7 -16 3 -21 -5 -21 -6 -2 -12 10 -4
25 -5 33 -2 9 3 12 1 7 -6 -4 -7 -2 -12 3 -12 20 0 11 -20 -11 -30 -18 -7 -19
-9 -5 -9 20 -1 23 -17 5 -25 -7 -3 -3 -3 10 0 22 5 32 -11 10 -18 -8 -3 -8 -9
0 -24 6 -10 12 -13 12 -6 0 7 14 12 36 12 30 0 34 2 25 14 -9 11 -9 16 0 22 7
4 9 3 6 -3 -4 -6 -1 -13 7 -16 11 -4 13 1 10 21 -3 18 -1 22 4 14 12 -18 21
-17 38 5 11 14 14 14 13 3 -3 -30 1 -40 17 -40 14 0 15 2 3 17 -8 9 -9 14 -2
10 6 -4 13 -4 16 0 2 5 2 3 1 -4 -2 -6 4 -14 12 -17 9 -3 12 -10 9 -16 -6 -9
8 -14 28 -11 5 1 6 -3 2 -9 -3 -6 -10 -8 -14 -6 -4 3 -8 -2 -8 -10 0 -8 6 -13
13 -10 8 3 16 1 20 -5 3 -6 12 -8 20 -5 7 3 16 0 20 -7 4 -7 4 -9 0 -5 -5 4
-19 3 -32 -2 -19 -8 -22 -6 -17 8 6 14 5 15 -9 2 -10 -9 -12 -17 -6 -21 6 -4
7 -12 4 -18 -4 -6 -3 -11 3 -11 5 0 12 8 14 17 4 17 5 17 6 1 0 -10 6 -18 12
-18 5 0 7 -4 4 -10 -3 -6 1 -7 10 -4 10 4 14 1 12 -7 -2 -8 -2 -11 0 -7 3 4 5
11 6 15 2 13 48 33 61 27 6 -3 3 1 -6 8 -10 9 -13 19 -9 27 6 9 10 7 14 -9 3
-13 10 -19 16 -15 6 3 8 11 5 17 -4 7 -2 8 5 4 6 -4 9 -12 6 -17 -4 -5 1 -9
10 -9 9 0 13 -4 10 -10 -3 -5 -1 -10 4 -10 6 0 11 5 11 10 0 6 12 0 27 -14 15
-14 30 -23 33 -21 11 7 8 -29 -3 -45 -9 -12 -9 -13 3 -3 11 10 19 9 39 -10 18
-15 21 -16 11 -3 -14 17 -13 18 8 12 14 -5 22 -3 22 4 0 6 -4 8 -10 5 -5 -3
-10 -4 -10 -1 0 3 9 10 21 16 17 9 25 8 41 -7 21 -18 21 -18 9 4 -16 31 -14
40 5 17 8 -10 13 -14 10 -7 -4 6 -1 15 5 19 8 4 9 3 5 -4 -7 -11 6 -17 27 -13
5 1 6 -2 3 -7 -3 -5 1 -18 8 -28 9 -12 11 -25 6 -35 -8 -13 -3 -15 30 -13 22
1 42 -2 46 -7 3 -5 10 -7 15 -3 5 3 7 10 4 15 -4 5 -1 9 5 9 6 0 9 4 5 9 -3 6
2 14 11 19 16 9 89 -20 89 -36 0 -4 4 -13 8 -19 5 -7 5 -18 1 -25 -5 -7 -3 -8
6 -3 10 6 12 4 7 -9 -4 -11 -3 -15 4 -10 8 4 9 -1 4 -17 -7 -21 -6 -22 8 -10
9 7 14 17 11 22 -3 5 0 9 6 9 7 0 10 -6 7 -13 -7 -18 29 -41 39 -25 4 6 3 8
-4 4 -6 -3 -13 -2 -17 4 -3 5 1 10 9 10 8 0 18 5 22 12 5 7 3 8 -5 3 -10 -6
-11 -3 -2 14 15 28 18 27 16 -9 -1 -16 2 -27 7 -24 5 4 7 13 4 21 -4 9 -1 13
6 10 7 -2 12 -10 10 -16 -1 -7 2 -10 7 -6 6 3 8 12 5 20 -4 10 0 13 15 10 12
-2 19 0 16 5 -3 4 -16 7 -30 6 -13 -2 -22 1 -19 5 3 5 19 7 35 4 23 -4 29 -2
23 7 -6 10 -5 11 8 1 8 -7 18 -10 21 -6 4 3 7 1 7 -5 0 -16 -18 -24 -23 -10
-4 9 -6 10 -6 1 -2 -23 18 -23 34 -1 15 20 16 21 11 3 -3 -11 -1 -27 4 -35 6
-10 10 -11 10 -2 0 6 6 12 14 12 8 0 16 3 19 8 2 4 2 2 1 -5 -4 -16 13 -26 21
-13 3 5 11 10 18 10 6 0 2 -6 -8 -14 -18 -13 -18 -14 1 -24 10 -5 22 -10 27
-11 8 -1 8 -14 0 -21 -4 -3 -3 0 1 7 4 8 0 11 -14 8 -11 -2 -20 2 -20 8 0 7
-5 4 -11 -6 -6 -9 -15 -14 -21 -11 -7 4 -8 2 -4 -5 4 -6 13 -8 19 -4 18 11 37
12 37 3 0 -5 8 -8 18 -7 21 1 25 24 8 47 -10 13 -9 13 6 1 15 -11 19 -11 24 3
3 9 10 13 15 10 5 -3 9 0 9 7 0 8 5 5 13 -5 12 -16 15 -16 26 -3 9 12 9 17 0
23 -8 5 -9 3 -4 -6 6 -9 4 -11 -4 -6 -7 5 -10 11 -6 14 8 8 45 10 40 2 -2 -3
6 -12 18 -20 21 -12 21 -12 7 5 -14 17 -13 18 2 12 10 -3 20 -2 23 3 11 18 25
11 45 -22 20 -34 28 -32 10 2 -7 13 -7 21 0 25 5 3 10 0 10 -8 0 -7 12 -19 26
-25 20 -10 24 -10 18 0 -6 10 -4 10 8 0 9 -8 14 -21 11 -30 -4 -15 -3 -15 6
-2 10 14 16 7 11 -15 -1 -5 2 -7 6 -3 4 4 14 2 23 -5 8 -6 5 3 -8 21 -23 33
-23 33 -2 21 11 -8 21 -16 21 -20 0 -3 14 -5 30 -5 17 0 30 4 30 8 0 5 -9 7
-19 3 -11 -3 -23 0 -27 6 -4 7 -3 9 4 6 14 -9 43 3 36 14 -3 5 2 6 10 3 9 -3
13 -11 9 -17 -4 -6 -1 -7 6 -3 7 5 10 15 6 24 -3 9 -3 13 1 9 4 -4 12 0 18 8
8 11 15 12 26 4 13 -9 13 -10 -2 -6 -10 4 -18 -1 -21 -14 -4 -16 -3 -18 9 -8
7 6 20 9 28 6 10 -4 13 -1 9 9 -4 10 0 12 11 8 9 -3 22 -1 30 5 16 13 35 -5
31 -30 -2 -9 3 -16 10 -16 9 0 12 11 9 31 -2 23 -1 27 6 16 5 -8 10 -23 10
-32 0 -21 16 -32 26 -17 4 8 3 9 -4 5 -8 -5 -10 -1 -5 9 5 13 7 14 14 3 5 -7
9 -9 9 -4 0 5 7 2 17 -5 9 -8 18 -12 20 -11 3 2 7 1 10 -1 7 -8 -20 -3 -34 6
-8 5 -13 3 -13 -6 0 -18 45 -16 62 2 11 11 10 12 -1 6 -10 -6 -12 -4 -6 4 5 9
13 7 30 -9 15 -14 25 -18 30 -11 3 7 3 11 -2 10 -23 -4 -25 3 -5 17 12 8 19
21 16 27 -4 7 -3 8 1 4 13 -11 15 -38 3 -31 -7 4 -8 2 -4 -4 4 -7 25 -12 47
-12 22 0 38 4 35 8 -2 4 0 14 6 22 8 12 9 12 5 -2 -4 -12 0 -16 13 -15 15 1
17 4 7 16 -10 12 -9 14 6 8 10 -4 16 -3 12 2 -3 5 0 13 6 17 8 4 9 3 5 -4 -10
-16 7 -15 23 1 11 9 13 9 7 0 -4 -8 -1 -13 8 -13 9 0 16 4 16 8 0 12 33 11 49
-1 19 -16 40 -17 35 -3 -3 8 6 12 28 11 18 -1 42 3 53 9 18 9 19 8 5 -9 -14
-17 -13 -17 5 -8 11 6 28 9 38 8 10 -2 14 1 10 8 -4 7 0 8 13 3 15 -6 16 -5 7
5 -10 10 -15 9 -28 -1 -8 -7 -15 -8 -15 -2 0 13 26 23 45 16 8 -4 15 -12 15
-19 0 -8 5 -17 12 -21 7 -4 8 -3 4 5 -8 12 3 56 11 47 4 -3 13 0 22 7 14 10
14 10 3 -4 -10 -14 -10 -18 5 -23 10 -4 14 -4 10 0 -4 4 -2 13 4 20 8 9 18 10
36 3 l26 -10 -18 28 c-16 24 -16 26 -2 14 9 -7 17 -10 17 -6 0 4 6 2 13 -4 8
-6 17 -8 20 -4 4 3 7 0 7 -8 0 -12 2 -12 9 0 7 10 13 11 31 1 15 -8 20 -8 16
-1 -14 21 4 11 36 -21 17 -18 28 -25 25 -16 -3 10 -2 20 3 23 10 6 14 -7 11
-35 -2 -13 -1 -13 8 0 6 8 11 11 11 6 0 -5 6 -3 14 4 8 6 12 18 9 26 -4 10 0
12 11 8 9 -3 13 -11 9 -17 -3 -6 -1 -7 6 -3 6 4 9 11 6 16 -3 4 2 13 10 20 11
9 12 17 4 32 -14 26 8 43 30 25 12 -10 14 -9 8 5 -3 10 -2 20 4 23 5 4 9 3 8
-2 -3 -20 2 -27 11 -13 6 10 10 11 10 3 0 -7 5 -13 11 -13 5 0 8 4 5 9 -3 5 2
8 12 7 9 0 20 -8 24 -16 5 -12 7 -12 7 3 1 15 3 15 21 -3 17 -17 23 -18 39 -8
11 7 17 16 14 21 -3 5 5 3 18 -4 23 -12 23 -11 9 6 -14 17 -14 17 6 7 24 -13
46 1 37 24 -3 9 1 14 12 14 10 0 13 -5 9 -12 -5 -7 -3 -8 5 -4 7 5 10 15 7 23
-5 12 -1 14 14 10 16 -4 18 -2 10 12 -6 13 -5 18 5 18 8 0 12 -4 10 -8 -3 -4
2 -9 10 -12 10 -4 12 -1 8 10 -5 12 -3 14 7 8 10 -6 12 -4 7 9 -4 10 -3 15 3
11 6 -4 9 -14 8 -22 -2 -9 5 -17 15 -19 14 -2 16 1 7 11 -14 16 1 27 20 14 22
-13 33 -11 27 6 -4 8 -1 17 5 21 7 4 8 3 4 -4 -4 -7 -3 -12 2 -12 6 0 13 7 16
16 4 10 12 14 22 10 12 -5 15 -2 10 10 -5 14 -4 15 9 4 12 -10 15 -10 15 0 0
8 3 10 6 7 4 -4 1 -13 -5 -21 -9 -11 -9 -16 0 -22 8 -4 9 -3 5 4 -4 7 -3 12 3
12 5 0 11 -5 13 -12 3 -7 7 -5 11 6 5 11 3 15 -5 10 -7 -4 -8 -3 -4 5 11 16
29 2 21 -17 -3 -9 -3 -13 1 -9 4 4 14 1 22 -6 12 -9 11 -4 -3 23 l-18 35 32
-32 c17 -18 36 -33 42 -33 6 0 3 8 -7 17 -11 11 -13 18 -5 21 6 2 8 9 5 14 -4
6 -2 8 4 4 6 -3 14 -2 17 4 4 6 16 8 28 5 12 -2 16 -2 9 1 -6 3 -9 11 -5 17 4
6 0 8 -10 4 -11 -4 -14 -2 -10 9 3 8 11 13 17 11 8 -3 11 5 10 24 -2 27 -1 27
20 13 20 -12 23 -12 23 1 0 8 -5 11 -11 8 -7 -3 -6 -1 1 7 13 14 37 4 27 -12
-5 -7 -2 -8 7 -2 15 9 35 15 60 17 9 1 16 7 16 14 0 8 -5 9 -19 2 -10 -5 -24
-7 -30 -3 -6 4 -8 3 -5 -3 3 -5 0 -10 -8 -10 -8 0 -12 4 -9 8 2 4 -2 9 -8 12
-7 2 3 4 22 4 19 0 45 4 58 8 19 6 21 5 15 -11 -6 -16 -5 -17 9 -4 8 8 13 23
10 34 -4 13 -1 17 9 14 8 -3 19 1 24 9 8 11 15 8 38 -11 15 -13 29 -33 30 -44
1 -20 27 -20 27 0 0 5 -6 6 -12 2 -9 -5 -9 -2 1 9 15 19 31 22 31 6 0 -5 -6
-7 -12 -3 -10 6 -10 5 -1 -7 6 -8 12 -18 13 -24 1 -5 4 -12 7 -15 4 -3 3 0 -1
7 -3 6 -2 14 4 18 6 4 8 11 5 16 -4 5 0 9 7 9 10 0 10 2 -1 9 -10 6 -10 13 -2
28 5 11 7 24 3 28 -4 5 -1 5 6 1 9 -6 9 -12 1 -29 -7 -12 -8 -19 -4 -15 5 4
15 2 24 -5 14 -10 14 -10 3 4 -11 14 -10 20 5 35 15 15 16 17 2 12 -13 -5 -16
0 -15 22 0 23 5 27 23 25 12 -1 20 2 17 7 -4 6 7 8 24 5 25 -4 30 -2 24 11 -5
14 -4 15 10 2 9 -8 13 -19 10 -25 -2 -5 1 -5 8 2 11 10 11 15 -1 29 -13 16
-12 16 9 5 12 -6 22 -7 22 -2 0 5 -6 12 -12 15 -7 3 1 4 17 1 21 -4 26 -3 16
4 -17 11 -25 45 -8 34 7 -4 8 0 4 11 -4 9 -3 14 2 11 5 -3 12 -1 16 5 4 6 10
8 15 5 5 -3 13 3 19 12 6 11 11 13 12 6 1 -7 2 -17 3 -22 0 -5 5 -13 10 -18 5
-5 6 -3 2 5 -4 7 -2 12 6 12 8 0 20 -6 27 -12 10 -10 12 -10 7 -1 -4 7 4 19
18 28 18 12 23 23 20 40 -2 13 0 26 6 30 6 4 7 -1 3 -11 -4 -11 -3 -15 4 -11
6 4 14 1 17 -5 3 -7 4 -4 1 8 -4 13 2 27 17 40 12 10 18 14 15 8 -4 -7 2 -14
14 -17 19 -5 19 -4 5 18 -11 17 -13 26 -4 31 6 4 8 3 5 -3 -4 -6 2 -18 12 -27
14 -13 21 -14 27 -5 5 8 3 10 -6 4 -10 -6 -12 -4 -7 8 3 9 2 19 -4 22 -5 4 -7
11 -3 16 3 5 10 7 15 4 5 -4 13 2 17 12 4 10 12 19 17 20 6 1 18 5 28 8 14 6
16 3 11 -11 -3 -11 -2 -15 3 -9 4 6 14 10 22 10 7 0 17 10 22 23 6 15 5 22 -3
22 -6 0 -8 3 -5 6 4 4 14 1 23 -7 16 -13 16 -12 6 8 -17 30 -15 41 3 17 14
-18 14 -18 8 4 -3 12 0 28 6 36 9 11 9 15 -1 19 -9 4 -9 6 -1 6 6 1 20 -7 29
-16 17 -17 17 -17 11 -1 -4 12 0 21 14 28 15 9 21 7 25 -5 6 -14 8 -13 19 2 9
12 10 22 4 30 -7 7 -6 13 1 18 5 3 10 5 11 3 0 -2 2 -11 4 -21 2 -11 6 -22 10
-25 3 -4 3 8 0 27 -3 21 -2 30 5 26 6 -4 7 1 3 11 -5 13 -3 15 7 9 8 -5 11 -4
6 3 -3 6 -15 9 -26 7 -12 -2 -18 0 -15 6 4 5 10 7 15 4 7 -4 23 31 21 47 0 4
6 5 15 1 13 -5 13 -7 2 -14 -7 -5 -8 -9 -2 -9 18 0 24 13 13 27 -9 10 -8 13 4
13 8 0 14 8 13 17 0 10 4 18 11 18 7 0 17 5 24 12 6 6 18 9 27 6 9 -4 13 -2 9
4 -4 6 0 13 8 16 9 4 12 1 8 -9 -3 -7 0 -14 6 -14 6 0 8 -8 5 -18 -5 -16 -5
-16 6 1 11 17 36 25 26 8 -6 -10 12 -9 29 0 6 4 18 5 28 4 9 -2 17 1 17 6 0 5
-5 9 -11 9 -5 0 -7 5 -3 12 4 7 3 8 -5 4 -6 -4 -9 -11 -6 -16 3 -5 -4 -7 -15
-5 -13 3 -18 0 -14 -7 4 -7 3 -8 -4 -4 -6 4 -8 14 -5 22 5 13 7 13 14 2 8 -12
13 -4 10 15 -1 5 2 6 7 3 5 -3 18 1 28 9 18 13 19 14 0 21 -17 7 -17 8 3 18
l21 12 -20 22 c-12 12 -16 22 -10 22 5 0 10 4 10 10 0 5 -8 7 -17 3 -22 -8
-17 -2 22 22 26 16 28 16 16 2 -8 -10 -11 -20 -7 -24 3 -3 6 -1 6 6 0 7 6 11
13 8 10 -4 13 2 9 19 -2 14 0 24 7 24 7 0 9 -4 6 -10 -3 -6 4 -9 19 -8 13 1
24 7 23 13 -1 5 5 8 13 7 8 -2 12 0 8 4 -4 4 -3 13 3 21 7 8 8 13 1 13 -5 0
-13 -7 -16 -16 -3 -8 -11 -12 -17 -8 -7 4 -9 3 -5 -4 3 -6 1 -14 -5 -18 -8 -4
-9 -3 -5 4 4 7 1 12 -6 12 -10 0 -9 3 2 9 8 6 18 7 22 5 4 -3 8 2 8 11 0 10
-5 13 -12 9 -8 -4 -10 -3 -5 2 5 5 13 10 18 10 5 1 14 2 19 3 6 0 10 5 10 11
0 5 -8 7 -17 4 -14 -5 -15 -4 -4 4 8 6 10 15 6 22 -5 8 -4 11 3 6 6 -3 13 -2
17 4 4 6 10 8 15 5 4 -3 13 2 20 10 14 17 30 20 30 4 0 -5 -5 -7 -12 -3 -7 5
-8 3 -3 -6 5 -9 4 -11 -3 -6 -7 4 -12 2 -12 -3 0 -14 13 -14 27 0 14 14 36 2
27 -13 -4 -7 -2 -8 4 -4 9 5 8 13 -3 30 -15 22 -15 23 10 19 15 -3 25 -1 25 6
0 7 -4 9 -10 6 -6 -3 -7 1 -4 9 3 9 10 14 14 11 5 -3 11 -1 15 5 4 6 10 8 14
6 4 -3 8 1 8 8 0 8 -7 13 -16 11 -9 -1 -14 -9 -13 -16 2 -8 0 -10 -4 -6 -10
10 -14 37 -6 36 21 -3 32 3 32 16 0 8 6 12 14 9 18 -7 35 23 30 54 -3 16 1 22
14 22 14 0 15 -2 2 -10 -8 -5 -10 -10 -5 -10 6 0 16 4 24 9 11 7 8 11 -10 17
-13 4 -28 7 -32 6 -5 -1 -6 2 -2 8 3 6 11 7 17 4 6 -4 8 -1 6 7 -3 8 -12 13
-19 11 -8 -2 -3 8 10 21 12 14 20 30 17 36 -4 6 -2 19 4 28 9 14 10 14 7 2 -3
-9 1 -16 8 -16 7 0 11 11 10 29 -2 18 3 32 11 35 8 3 12 8 9 13 -2 4 8 13 23
19 15 7 24 10 20 6 -4 -4 0 -14 8 -22 8 -8 12 -18 10 -22 -3 -4 6 -7 19 -7 13
0 22 3 19 7 -2 4 3 10 12 13 9 4 14 9 11 13 -11 10 13 32 28 27 7 -3 16 0 21
7 4 8 3 10 -4 5 -7 -4 -12 -1 -12 9 0 10 -5 13 -12 9 -9 -5 -9 -2 1 9 11 14
11 17 0 17 -12 0 -12 2 0 9 9 6 10 10 2 14 -7 3 -7 5 1 3 7 -2 13 -13 13 -27
0 -16 6 -25 20 -26 15 -2 16 -1 5 5 -9 4 -15 14 -15 22 1 8 -4 27 -11 41 -7
15 -11 28 -9 31 2 2 5 20 7 40 1 20 6 34 10 32 4 -3 8 0 8 7 0 8 4 8 15 -1 13
-11 14 -10 9 4 -3 9 -11 16 -17 16 -6 0 -7 3 -4 7 4 3 17 -2 28 -13 l22 -19
-17 35 c-13 26 -13 30 -2 16 13 -16 17 -16 34 -5 10 8 18 22 16 31 -1 10 7 29
18 43 17 22 18 26 3 31 -9 4 -19 4 -22 0 -4 -3 1 -6 11 -6 9 0 14 -5 11 -10
-4 -6 -11 -7 -17 -4 -7 4 -8 2 -4 -4 4 -7 3 -12 -2 -12 -14 0 -23 28 -11 36 6
3 8 12 6 18 -3 7 -1 19 5 27 8 11 9 11 4 -3 -3 -10 -1 -20 5 -23 5 -4 9 -3 8
2 -5 28 2 42 19 37 14 -5 14 -4 2 4 -8 6 -18 8 -22 6 -9 -6 1 26 13 42 5 6 5
15 1 19 -4 5 -1 5 6 0 10 -5 11 -10 3 -18 -6 -6 -11 -15 -11 -20 0 -5 7 -1 16
8 9 8 13 22 10 30 -3 8 0 14 6 12 6 -1 13 4 16 12 2 8 0 11 -5 8 -5 -3 -9 2
-9 12 0 10 6 18 13 18 7 0 9 -5 6 -10 -3 -6 -1 -7 5 -3 9 5 8 13 -3 30 -8 12
-12 26 -8 30 4 4 1 12 -7 17 -13 9 -13 10 0 8 37 -4 46 1 27 15 -17 13 -17 14
0 21 10 5 25 9 33 9 8 1 14 9 14 18 -1 10 5 16 17 15 11 -1 19 -6 19 -11 0
-18 11 2 16 30 3 16 11 35 17 44 11 13 10 13 -6 1 -15 -12 -20 -12 -30 -1 -8
9 -8 11 -1 7 7 -4 15 0 18 9 9 24 7 27 -9 14 -13 -11 -14 -10 -9 4 3 9 0 24
-7 34 -10 12 -7 12 10 -3 l24 -20 -17 33 c-9 18 -13 32 -9 31 20 -3 27 2 14
10 -12 8 -12 12 -2 25 8 9 21 16 30 16 9 0 22 5 29 12 9 9 12 8 12 -7 0 -15 2
-17 9 -7 4 8 11 13 15 13 23 -3 28 1 13 10 -14 8 -16 14 -6 25 6 7 15 12 18 9
4 -2 8 2 8 10 0 12 -3 12 -16 2 -24 -18 -30 -30 -24 -41 4 -5 -1 -7 -10 -3 -9
3 -19 2 -22 -4 -4 -5 -11 -7 -16 -3 -5 3 -7 10 -3 15 3 5 9 7 13 5 12 -8 34
11 27 23 -4 6 -12 8 -18 5 -6 -4 -6 1 1 14 13 24 14 35 3 28 -4 -2 -9 5 -9 17
-2 20 -1 20 8 5 6 -10 15 -18 22 -18 7 0 6 4 -3 10 -8 5 -10 10 -5 10 6 0 1 7
-10 16 -19 15 -19 15 6 11 17 -4 26 -1 26 9 0 10 -4 11 -14 3 -9 -9 -13 -8
-13 0 0 7 -5 9 -12 5 -7 -4 -8 -3 -4 5 4 6 11 9 16 6 5 -3 22 1 37 9 16 8 22
15 15 16 -8 0 -10 5 -5 13 4 6 8 18 9 25 2 10 -1 10 -12 1 -7 -6 -11 -15 -8
-20 3 -5 1 -9 -4 -9 -6 0 -13 7 -16 16 -3 8 -2 12 4 9 10 -6 12 0 14 45 1 19
6 24 21 22 16 -2 17 -1 5 7 -14 10 -7 16 14 12 5 -1 4 4 -2 12 -9 10 -8 18 3
35 9 12 11 23 6 27 -6 3 -8 12 -4 20 3 8 0 15 -7 15 -6 0 -8 5 -3 13 4 6 -6 3
-22 -7 l-30 -19 24 27 c24 25 17 38 -7 14 -9 -9 -12 -9 -12 0 0 7 5 12 11 12
5 0 7 5 3 12 -5 7 -2 9 8 6 11 -5 15 0 14 15 -1 25 -21 41 -38 31 -7 -5 -8 -3
-3 5 4 8 18 10 34 7 14 -3 20 -3 13 0 -6 3 -10 10 -6 15 3 5 -2 9 -11 9 -9 0
-13 5 -10 10 4 6 11 8 17 4 5 -3 2 8 -6 25 -15 28 -14 35 7 32 4 0 7 4 7 11 0
6 10 3 22 -8 l21 -19 -19 30 c-14 21 -15 27 -4 20 29 -18 45 -14 21 6 -13 10
-18 19 -12 19 7 0 9 5 5 12 -4 7 -3 8 5 4 6 -4 9 -11 6 -16 -3 -4 2 -11 10
-14 13 -5 14 -2 4 15 -6 12 -8 33 -5 47 5 20 4 23 -4 12 -8 -13 -10 -12 -11 5
-1 11 -1 24 1 30 1 5 -9 1 -22 -10 -22 -19 -22 -19 -8 -1 13 18 13 19 -1 14
-13 -5 -15 1 -15 30 1 31 -2 36 -18 34 -14 -3 -17 1 -13 12 4 9 2 16 -3 16 -6
0 -10 -5 -10 -12 0 -6 -2 -9 -5 -6 -12 11 7 37 23 31 11 -3 9 1 -5 11 -19 14
-30 62 -11 50 4 -3 5 -11 1 -19 -3 -8 -1 -15 4 -15 16 0 23 13 14 24 -5 6 -11
20 -13 31 -1 11 -7 23 -13 27 -6 5 -3 8 7 8 9 0 19 4 22 9 4 5 -3 7 -14 4 -19
-5 -27 7 -13 21 10 10 11 46 1 40 -4 -3 -8 7 -8 21 0 15 4 24 10 20 5 -3 7 0
4 9 -3 8 -14 13 -25 11 -10 -2 -19 1 -19 7 0 5 7 8 15 4 8 -3 15 -1 15 4 0 5
9 7 20 5 11 -2 18 0 16 4 -3 4 -21 7 -41 6 -19 -2 -32 1 -30 6 3 4 -3 12 -12
18 -10 6 -13 11 -7 11 5 0 15 -5 22 -12 9 -9 12 -8 12 4 0 12 -8 15 -29 14
-16 -1 -29 3 -28 8 1 6 -3 10 -8 9 -6 -1 -11 7 -11 17 0 10 6 16 13 13 19 -7
16 4 -6 24 -15 14 -17 22 -10 33 9 12 10 12 5 -2 -3 -10 -1 -18 4 -18 5 0 9
11 8 24 -1 14 -6 22 -10 20 -4 -3 -8 -1 -8 5 0 5 8 12 18 14 16 4 16 5 0 6
-10 0 -18 7 -18 15 0 8 -6 17 -12 19 -9 4 -10 6 -1 6 6 1 19 -6 27 -15 9 -8
16 -11 16 -5 0 15 -30 42 -41 36 -5 -4 -9 -1 -9 5 0 7 7 10 15 7 19 -8 30 12
16 26 -9 9 -11 7 -6 -8 6 -18 4 -17 -14 4 -12 13 -21 20 -21 15 0 -4 -5 -3
-11 3 -6 6 -19 9 -28 5 -14 -5 -14 -4 -2 11 12 15 12 17 -3 11 -9 -3 -16 -11
-16 -17 0 -6 -3 -7 -6 -4 -4 4 -1 13 6 22 8 10 9 15 1 15 -6 0 -11 4 -11 10 0
5 8 6 18 3 16 -7 16 -6 -1 11 -9 10 -14 22 -11 28 4 7 2 8 -4 4 -6 -3 -15 1
-20 10 -5 10 -16 15 -24 11 -8 -3 -15 1 -15 9 0 7 5 10 10 7 6 -3 7 -1 3 5 -4
6 -14 8 -24 5 -9 -3 -14 -3 -10 2 4 4 3 14 -3 22 -9 10 -8 13 1 13 8 0 10 3 7
7 -4 3 -17 -2 -29 -13 -13 -10 -20 -15 -16 -10 4 5 3 18 -3 29 -8 15 -8 18 1
12 8 -5 11 -3 8 6 -3 8 -14 12 -24 11 -15 -3 -14 0 6 18 l25 21 -24 -11 c-14
-7 -21 -8 -17 -2 3 6 2 13 -4 17 -6 4 -7 11 -4 17 4 7 2 8 -4 4 -6 -4 -24 1
-39 11 -15 10 -30 17 -33 16 -3 -2 -5 0 -5 5 0 4 -4 14 -10 22 -8 13 -7 13 8
1 9 -7 15 -17 12 -21 -3 -5 3 -7 12 -6 10 2 23 -4 29 -12 9 -12 13 -12 19 -2
5 8 4 11 -2 7 -6 -4 -14 0 -17 9 -4 9 -9 14 -13 11 -8 -9 -34 13 -28 22 6 10
-29 10 -35 0 -3 -5 -11 0 -18 11 -9 15 -8 22 5 36 16 16 16 16 -5 10 -17 -6
-22 -3 -22 9 0 9 -5 13 -10 10 -6 -4 -7 -12 -3 -18 3 -7 -3 -4 -15 6 -11 11
-18 25 -16 32 8 19 -23 26 -41 9 -13 -14 -15 -13 -15 5 0 11 -5 23 -12 27 -6
4 -9 3 -6 -2 3 -5 -1 -15 -10 -23 -13 -13 -14 -12 -10 12 4 19 1 27 -9 27 -9
0 -11 -5 -7 -12 4 -8 3 -10 -2 -5 -5 5 -9 14 -9 20 -1 7 -7 11 -14 9 -7 -1
-10 2 -6 7 3 6 12 8 19 5 8 -3 16 -1 19 3 7 11 -34 11 -50 0 -9 -6 -11 -3 -7
7 3 8 13 17 22 19 11 3 8 5 -8 7 -14 1 -29 2 -35 0 -5 -1 -4 4 3 11 17 18 15
30 -5 27 -10 -2 -17 2 -16 9 2 7 -6 10 -20 7 -43 -10 -66 -11 -62 -4 3 4 -16
6 -40 5 -37 -1 -43 1 -33 12 6 8 14 10 17 6 3 -4 15 -9 26 -11 17 -2 16 0 -4
12 -14 7 -32 11 -40 8 -10 -4 -12 -1 -6 8 5 9 4 11 -3 6 -7 -4 -12 -15 -12
-24 0 -14 -2 -15 -9 -2 -6 8 -7 19 -3 25 3 5 -3 3 -13 -5 -14 -11 -17 -12 -11
-1 6 9 5 12 -5 9 -16 -5 -38 19 -39 42 0 18 -80 64 -80 47 0 -18 -60 -15 -61
3 0 10 -3 8 -9 -5 -5 -11 -9 -14 -9 -7 -1 6 -6 12 -12 12 -5 0 -8 -4 -5 -9 4
-5 -2 -8 -11 -6 -10 1 -25 -3 -33 -9 -13 -10 -13 -9 -1 6 7 10 17 15 22 12 5
-3 6 3 2 12 -4 11 -8 13 -11 6 -2 -7 -8 -9 -14 -6 -6 4 -15 0 -20 -7 -7 -10
-7 -7 -3 9 5 16 2 22 -10 22 -9 0 -13 -4 -10 -10 3 -5 1 -10 -5 -10 -7 0 -9 7
-6 16 4 12 2 15 -9 10 -8 -3 -15 0 -15 7 0 8 -4 6 -10 -3 -5 -8 -10 -10 -10
-4 0 6 -7 11 -15 11 -8 0 -12 -4 -9 -9 3 -4 1 -8 -5 -8 -5 0 -11 5 -13 11 -2
7 -12 7 -30 0 -19 -7 -28 -7 -32 2 -3 9 -7 8 -15 -3 -9 -13 -12 -13 -23 -1
-11 11 -11 13 1 6 9 -5 12 -4 7 3 -5 9 -13 9 -27 2 -15 -9 -21 -7 -25 5 -3 8
-10 15 -15 15 -6 0 -6 -7 0 -18 7 -14 6 -19 -4 -19 -7 0 -11 7 -7 15 3 10 1
13 -6 8 -15 -9 -16 6 -2 20 8 8 3 11 -16 10 -18 -1 -28 -8 -30 -20 -1 -10 -8
-24 -15 -30 -9 -8 -9 -6 0 12 13 24 10 24 -49 13 -3 -1 2 -6 10 -12 12 -9 12
-10 -4 -5 -11 4 -27 -1 -39 -11 l-21 -18 20 27 c10 14 23 25 28 25 5 -1 11 4
13 11 6 14 -13 16 -22 2 -4 -6 -10 -8 -15 -5 -5 3 -12 0 -16 -6 -5 -8 -3 -9 6
-4 8 5 11 4 6 -3 -4 -6 -14 -8 -23 -5 -12 5 -14 3 -8 -8 6 -11 5 -11 -5 -2
-10 9 -18 8 -35 -3 -19 -12 -25 -13 -31 -2 -4 7 -4 10 1 6 4 -4 17 -2 29 4 11
7 24 11 28 10 4 -1 12 8 18 21 10 20 10 21 -3 4 -10 -12 -17 -14 -22 -8 -3 6
-12 11 -18 11 -8 0 -8 -3 1 -9 10 -6 8 -10 -8 -14 -16 -4 -24 0 -30 16 -8 21
-9 21 -11 2 -1 -11 -1 -24 0 -28 1 -5 -3 -6 -9 -2 -6 3 -8 10 -6 14 3 4 1 13
-4 21 -8 13 -11 13 -22 1 -11 -12 -10 -13 2 -6 8 5 11 4 7 0 -10 -11 -39 -16
-32 -5 3 4 -2 11 -11 14 -8 3 -13 2 -10 -3 3 -5 -1 -11 -9 -15 -8 -3 -17 0
-21 6 -5 7 -2 8 7 3 12 -8 12 -6 0 8 -15 19 -26 23 -15 5 5 -7 2 -9 -9 -5 -12
4 -15 1 -11 -11 5 -15 4 -15 -8 -2 -15 17 -43 26 -34 11 4 -5 2 -12 -4 -16 -5
-3 -10 0 -10 8 0 14 -33 14 -70 0 -32 -12 -61 -10 -56 4 3 7 1 13 -4 13 -6 0
-10 -7 -10 -15 0 -8 -5 -15 -11 -15 -6 0 -8 7 -5 16 3 8 2 12 -4 9 -6 -3 -10
-1 -10 6 0 6 -9 1 -19 -12 -16 -20 -22 -22 -33 -11 -11 11 -10 12 7 6 11 -4
17 -4 13 0 -11 13 -60 14 -55 1 3 -6 -1 -12 -9 -12 -9 0 -13 6 -9 15 4 12 2
12 -8 4 -8 -7 -17 -9 -20 -5 -4 3 -7 -1 -7 -9 0 -10 -8 -14 -25 -13 -14 2 -25
-1 -25 -6 0 -5 -4 -9 -10 -9 -5 0 -9 3 -9 8 4 21 -2 32 -13 26 -10 -6 -10 -5
-1 7 10 12 10 18 1 27 -15 15 -28 15 -28 1 0 -5 4 -8 9 -4 5 3 13 0 17 -7 4
-7 4 -10 -1 -6 -4 4 -15 2 -23 -5 -9 -6 -13 -7 -10 -2 4 6 3 17 -2 25 -7 11
-11 11 -23 1 -11 -8 -17 -9 -22 -1 -3 6 -11 8 -16 4 -5 -3 -7 -9 -4 -14 6 -9
24 -8 43 3 6 5 12 4 12 -1 0 -13 -19 -20 -47 -17 -13 1 -23 -3 -23 -9 0 -6 -4
-5 -9 3 -5 8 -11 9 -15 3 -4 -6 2 -16 11 -22 15 -9 15 -10 -6 -4 -16 4 -21 3
-17 -5 5 -7 1 -8 -10 -4 -11 4 -15 3 -10 -5 3 -6 2 -14 -4 -17 -6 -4 -10 -3
-9 2 3 20 -2 25 -16 13 -8 -7 -15 -9 -15 -5 0 4 -8 1 -17 -6 -11 -10 -14 -10
-9 -1 4 7 1 12 -9 12 -10 0 -13 -5 -9 -12 4 -7 3 -8 -4 -4 -6 4 -9 14 -6 24 4
10 2 13 -3 7 -4 -6 -15 -10 -23 -10 -8 1 -26 -5 -39 -13 -13 -8 -21 -10 -17
-4 3 5 -1 12 -9 15 -9 4 -12 1 -9 -8 8 -19 -26 -13 -41 9 -10 13 -14 14 -18 3
-6 -17 -53 -15 -49 2 2 9 -3 9 -17 2 -10 -6 -22 -7 -26 -3 -5 4 -5 1 -1 -6 4
-7 13 -9 19 -6 7 4 8 3 4 -1 -11 -13 -37 -15 -37 -3 0 5 -7 3 -15 -6 -20 -20
-19 -32 2 -15 15 13 15 12 5 -8 -16 -29 -29 -36 -38 -22 -5 8 -3 9 6 4 9 -5
11 -4 6 4 -10 15 -26 5 -27 -17 0 -14 -2 -13 -9 3 -6 14 -9 16 -10 5 -2 -8 -2
-19 -1 -23 1 -5 -4 -5 -10 -1 -6 3 -16 0 -21 -7 -8 -11 -9 -10 -4 3 3 10 1 20
-4 23 -6 4 -10 0 -10 -8 0 -9 -9 -13 -25 -12 -14 2 -23 -1 -19 -6 3 -5 9 -7
13 -5 4 3 8 -1 8 -9 0 -10 -8 -9 -30 7 l-29 21 12 -24 13 -24 -23 20 c-16 14
-22 15 -18 5 4 -11 -1 -15 -18 -15 -13 0 -24 3 -24 8 0 4 5 7 12 7 6 0 9 2 6
5 -9 10 -38 -7 -31 -18 3 -6 1 -7 -5 -3 -6 3 -9 16 -7 27 4 17 2 19 -11 8 -8
-6 -17 -9 -21 -5 -3 3 -1 6 5 6 7 0 12 5 12 11 0 5 -6 7 -12 3 -8 -5 -7 0 2
11 9 11 10 16 3 11 -9 -5 -13 0 -13 14 0 14 4 19 13 14 6 -4 9 -3 4 1 -12 13
-47 16 -47 4 0 -5 5 -7 12 -3 7 4 8 3 4 -5 -12 -20 -26 -2 -22 30 2 16 6 32 9
35 10 10 -28 41 -43 35 -13 -4 -13 -2 -1 12 8 10 11 20 7 24 -3 3 -6 1 -6 -5
0 -7 -5 -12 -10 -12 -7 0 -7 6 0 20 8 15 8 18 -3 14 -16 -6 -50 30 -52 56 -1
10 2 17 7 14 4 -3 8 0 8 5 0 6 -9 11 -19 11 -10 0 -22 7 -25 16 -6 15 -4 15
11 3 15 -12 15 -11 -1 14 -10 15 -25 27 -33 27 -8 0 -11 5 -8 10 4 6 10 8 14
6 4 -3 8 1 8 9 0 8 -4 12 -9 9 -4 -3 -11 2 -14 10 -3 9 -11 16 -17 16 -5 0 -3
-8 6 -18 15 -16 15 -19 2 -19 -8 0 -13 3 -10 5 3 3 -2 14 -12 24 -9 10 -13 18
-8 18 4 0 -4 12 -19 26 -17 18 -23 31 -17 38 6 7 4 18 -5 30 -7 10 -11 22 -9
26 2 4 -2 7 -10 7 -11 0 -9 -8 7 -31 l21 -31 -27 28 c-15 15 -25 34 -22 42 7
19 -20 45 -43 40 -16 -3 -19 2 -17 32 2 36 -8 51 -20 32 -5 -8 -3 -9 6 -4 9 5
11 4 6 -4 -13 -21 -27 -1 -15 22 7 12 8 19 4 15 -5 -4 -14 -3 -21 2 -6 6 -18
9 -25 8 -7 -2 -13 4 -14 12 -1 8 -7 13 -15 12 -8 -2 -12 0 -8 4 4 4 2 14 -5
22 -9 13 -9 14 1 8 6 -4 12 -2 12 3 0 9 -27 16 -52 12 -7 -1 -5 20 4 34 4 6 2
17 -4 25 -8 13 -9 13 -5 0 3 -11 -2 -16 -17 -17 -11 0 -15 1 -8 4 6 3 12 9 12
15 0 6 -7 8 -14 5 -11 -4 -13 -1 -9 10 4 11 2 14 -5 9 -7 -4 -12 -1 -12 9 0 9
5 13 10 10 6 -3 10 -1 10 4 0 14 -13 14 -28 -1 -9 -9 -12 -9 -12 1 0 7 -5 9
-10 6 -6 -4 -10 -3 -9 2 5 27 -2 45 -16 40 -8 -4 -17 -2 -20 4 -4 5 -12 6 -18
3 -8 -4 -7 -2 1 7 11 12 14 12 22 -1 7 -12 9 -10 8 6 -2 17 -8 21 -30 19 -15
-1 -25 1 -23 6 3 4 -3 12 -12 18 -10 6 -12 11 -5 11 17 0 15 17 -4 24 -8 3
-13 2 -10 -2 3 -5 -1 -9 -8 -9 -8 0 -11 8 -8 19 2 10 -1 18 -7 18 -6 0 -11 7
-11 16 0 8 -5 12 -10 9 -6 -4 -7 -12 -3 -18 3 -7 -3 -4 -15 7 -12 10 -19 23
-16 27 3 5 0 9 -5 9 -6 0 -11 4 -11 9 0 5 10 7 23 5 20 -4 20 -4 2 5 -11 5
-24 5 -29 1 -13 -13 -36 13 -24 27 6 8 3 10 -11 6 -15 -4 -21 -1 -21 10 0 19
-36 41 -50 32 -6 -3 -10 -1 -10 5 0 6 -4 8 -10 5 -6 -3 -7 1 -4 9 4 10 -3 20
-19 27 -26 12 -45 39 -28 39 5 0 12 -6 14 -12 4 -10 6 -10 6 -1 2 20 -21 27
-34 10 -7 -10 -16 -17 -21 -17 -4 0 -3 5 4 12 7 7 12 18 12 26 0 12 -3 12 -17
1 -10 -8 -14 -9 -10 -2 4 6 3 14 -2 17 -5 4 -12 -2 -14 -11 -4 -14 -5 -13 -6
5 0 12 -5 22 -11 22 -5 0 -7 -8 -4 -17 5 -15 4 -15 -4 -3 -7 9 -7 18 -1 26 6
7 4 15 -5 23 -9 8 -16 8 -20 2 -4 -6 -13 -8 -22 -4 -12 5 -12 7 3 18 16 12 15
13 -13 11 -19 -1 -31 3 -32 11 -1 7 -3 20 -4 28 -1 8 -5 12 -10 9 -5 -3 -6
-10 -3 -15 3 -5 -1 -6 -9 -3 -8 3 -12 12 -9 19 3 10 -2 13 -21 9 -15 -2 -26 0
-26 6 0 6 4 9 9 5 5 -3 12 -2 15 3 2 4 -5 9 -17 9 -12 1 -23 7 -25 13 -2 5 -9
7 -15 3 -7 -4 -8 0 -4 11 4 10 3 15 -3 11 -6 -3 -10 0 -11 7 -1 7 -5 2 -9 -12
l-8 -25 -1 28 c-1 17 -7 27 -16 27 -8 0 -15 5 -15 10 0 6 -6 9 -12 8 -7 -2
-12 3 -10 10 1 8 -2 11 -8 7 -6 -3 -7 -11 -4 -17 4 -6 2 -8 -4 -4 -5 3 -12 0
-15 -6 -3 -7 -5 -3 -6 10 -1 12 -1 32 -2 45 -1 12 -3 16 -6 10 -3 -7 -11 -13
-19 -13 -9 0 -12 -5 -9 -10 4 -6 11 -7 17 -4 7 4 8 2 4 -5 -12 -18 -67 29 -63
55 4 21 -16 26 -41 10 -8 -5 -15 1 -21 16 -6 13 -10 18 -10 12 -1 -16 -27 -25
-29 -11 -2 27 -9 47 -17 54 -4 4 -5 3 -2 -4 9 -15 -14 -23 -36 -11 -9 5 -23 6
-30 2 -6 -4 -9 -4 -6 0 4 4 -4 18 -18 32 -24 24 -39 32 -29 15 9 -13 -19 -7
-38 8 -8 7 -19 10 -24 7 -5 -3 -8 5 -7 18 2 13 -2 23 -10 23 -7 0 -11 -7 -8
-16 3 -12 2 -12 -7 2 -12 19 -35 24 -24 5 5 -9 2 -9 -9 1 -9 7 -17 10 -17 7 0
-14 -34 12 -36 28 -1 9 2 14 7 10 5 -3 7 -9 4 -14 -3 -4 2 -10 10 -14 22 -8
18 17 -5 31 -16 11 -21 10 -29 -5 -10 -16 -10 -16 -11 1 0 20 -26 23 -33 5 -4
-10 -6 -10 -6 0 -1 7 -6 10 -13 6 -7 -4 -8 -3 -4 5 4 6 11 9 16 6 4 -3 10 1
13 9 4 10 0 12 -13 9 -11 -3 -27 2 -36 11 -15 16 -18 16 -37 -1 -11 -10 -17
-12 -13 -5 4 7 1 12 -9 12 -9 0 -14 -4 -11 -8 3 -5 -1 -9 -9 -9 -12 0 -12 3
-2 16 10 12 9 14 -5 8 -11 -4 -18 -2 -18 6 0 8 -4 7 -11 -3 -9 -13 -10 -13 -8
0 3 33 -1 39 -27 34 -20 -4 -25 -1 -21 10 4 10 1 13 -8 10 -8 -3 -11 -12 -8
-20 3 -8 0 -14 -6 -14 -6 0 -10 5 -8 11 1 6 -6 13 -17 14 -10 2 -24 9 -30 16
-8 9 -6 9 11 0 17 -9 21 -8 19 4 -1 8 -6 18 -11 22 -4 4 -5 3 -2 -3 4 -7 -5
-11 -23 -12 -17 0 -30 5 -30 11 0 7 -4 6 -10 -3 -8 -13 -10 -13 -10 -1 0 11
-4 9 -14 -5 -8 -10 -18 -16 -22 -11 -4 4 -2 7 4 7 7 0 12 4 12 9 0 11 -19 9
-39 -3 -10 -6 -12 -5 -7 2 4 7 1 12 -8 12 -9 0 -16 -6 -16 -12 0 -10 -3 -9 -9
1 -7 11 -9 11 -14 0 -3 -8 -4 0 -2 16 4 28 3 29 -10 11 -8 -11 -15 -14 -15 -7
0 7 -4 9 -10 6 -5 -3 -10 -1 -10 5 0 7 6 10 14 7 8 -3 17 0 19 7 6 16 -34 9
-44 -7 -4 -5 -10 1 -14 13 -6 18 -9 20 -16 9 -7 -11 -12 -12 -28 -2 -17 11
-19 10 -14 -4 5 -12 3 -14 -8 -8 -8 5 -27 8 -43 6 -21 -2 -26 0 -20 11 6 10 4
10 -9 -1 -19 -15 -24 -2 -6 16 9 9 5 11 -15 9 -15 -2 -29 1 -32 5 -7 12 -24
11 -24 -2 0 -5 5 -7 10 -4 6 3 10 1 10 -5 0 -6 -8 -10 -17 -8 -10 2 -18 8 -18
15 0 6 -4 15 -9 20 -5 4 -6 3 -3 -3 7 -12 -21 -29 -31 -19 -3 3 0 5 6 5 7 0
12 5 12 11 0 7 -10 5 -25 -5 -17 -11 -23 -12 -19 -3 3 9 -4 13 -20 13 -14 0
-22 -4 -20 -8 3 -5 10 -5 16 -2 7 4 8 2 4 -4 -7 -11 -36 -6 -36 7 0 4 -9 7
-20 8 -11 1 -18 -2 -15 -7 4 -6 -2 -7 -11 -3 -13 5 -15 3 -9 -8 7 -10 2 -10
-17 3 -20 13 -28 14 -38 5 -10 -9 -11 -9 -6 1 4 6 2 12 -4 12 -7 0 -10 7 -6
15 3 8 1 15 -4 15 -6 0 -10 -8 -10 -17 0 -15 -2 -16 -9 -3 -6 8 -7 18 -4 23 3
5 -4 3 -15 -4 -12 -7 -18 -17 -15 -23 3 -5 1 -6 -6 -2 -6 4 -9 11 -6 16 3 4
-2 11 -11 14 -8 3 -12 2 -9 -4 3 -6 -1 -10 -10 -10 -10 0 -14 5 -9 13 5 9 4 9
-6 0 -11 -10 -16 -9 -24 2 -8 11 -15 12 -26 4 -13 -9 -12 -10 3 -5 9 3 17 1
17 -5 0 -6 -10 -9 -22 -7 -13 2 -22 9 -20 16 1 8 -2 11 -8 7 -6 -3 -7 -12 -3
-18 4 -7 -2 -5 -12 3 -11 9 -16 10 -11 3 4 -7 2 -13 -3 -13 -6 0 -11 6 -11 13
0 8 -4 7 -10 -3 -5 -8 -10 -10 -10 -3 0 6 -8 10 -17 9 -10 -2 -21 2 -25 8 -6
8 -8 8 -8 0z m-22 -31 c-6 -7 -14 -13 -18 -13 -4 0 -10 6 -13 13 -3 8 3 13 19
13 18 0 21 -3 12 -13z m29 -5 c-3 -8 -6 -5 -6 6 -1 11 2 17 5 13 3 -3 4 -12 1
-19z m31 -3 c-3 -3 -9 2 -12 12 -6 14 -5 15 5 6 7 -7 10 -15 7 -18z m-182 -17
c4 -7 3 -8 -4 -4 -7 4 -12 2 -12 -5 0 -7 -3 -10 -6 -6 -6 5 3 27 11 27 2 0 7
-5 11 -12z m767 -24 c-7 -3 -9 -13 -6 -22 4 -14 3 -14 -5 -2 -12 16 -7 30 11
29 9 0 9 -2 0 -5z m642 -174 c3 -5 1 -10 -4 -10 -6 0 -11 5 -11 10 0 6 2 10 4
10 3 0 8 -4 11 -10z m-2120 -118 c-3 -3 -11 0 -18 7 -9 10 -8 11 6 5 10 -3 15
-9 12 -12z m2805 -252 c0 -5 -4 -10 -10 -10 -5 0 -10 5 -10 10 0 6 5 10 10 10
6 0 10 -4 10 -10z m-3275 -600 c3 -6 -1 -7 -9 -4 -18 7 -21 14 -7 14 6 0 13
-4 16 -10z m-371 -88 c3 -5 -1 -9 -9 -9 -8 0 -12 4 -9 9 3 4 7 8 9 8 2 0 6 -4
9 -8z m-54 -22 c0 -5 -5 -10 -11 -10 -5 0 -7 5 -4 10 3 6 8 10 11 10 2 0 4 -4
4 -10z m-46 -26 c3 -8 2 -12 -4 -9 -6 3 -10 10 -10 16 0 14 7 11 14 -7z m4670
-92 c3 -5 -1 -9 -9 -9 -8 0 -12 4 -9 9 3 4 7 8 9 8 2 0 6 -4 9 -8z m85 -106
c9 -11 9 -16 -1 -22 -7 -4 -10 -4 -6 1 4 4 3 14 -3 22 -6 7 -9 13 -6 13 2 0
10 -6 16 -14z m155 -251 c-4 -8 -11 -15 -16 -15 -6 0 -5 6 2 15 7 8 14 15 16
15 2 0 1 -7 -2 -15z m136 -206 c0 -6 -4 -7 -10 -4 -5 3 -10 11 -10 16 0 6 5 7
10 4 6 -3 10 -11 10 -16z m-5767 5 c-7 -3 -9 -12 -6 -20 3 -8 1 -14 -5 -14 -8
0 -9 16 -3 38 1 1 7 2 14 1 9 0 9 -2 0 -5z m7517 -30 c0 -8 -19 -13 -24 -6 -3
5 1 9 9 9 8 0 15 -2 15 -3z m-1256 -39 c3 -8 1 -15 -4 -15 -6 0 -10 7 -10 15
0 8 2 15 4 15 2 0 6 -7 10 -15z m103 0 c0 -8 -4 -12 -9 -9 -5 3 -6 10 -3 15 9
13 12 11 12 -6z m-216 -38 c-10 -9 -11 -8 -5 6 3 10 9 15 12 12 3 -3 0 -11 -7
-18z m1879 -23 c0 -2 -7 -4 -15 -4 -8 0 -15 4 -15 10 0 5 7 7 15 4 8 -4 15 -8
15 -10z m290 -136 c10 -21 10 -21 -3 -6 -8 10 -18 14 -22 10 -5 -4 -5 -1 -1 6
10 17 14 15 26 -10z m190 -138 c0 -5 -5 -10 -11 -10 -5 0 -7 5 -4 10 3 6 8 10
11 10 2 0 4 -4 4 -10z m-8523 -365 c0 -11 -4 -12 -14 -4 -7 6 -13 13 -13 15 0
2 6 4 13 4 8 0 14 -7 14 -15z m8875 -31 c-8 -14 -9 -13 -9 10 0 18 3 24 9 18
7 -7 7 -16 0 -28z m84 -81 c-6 -6 -36 9 -36 18 0 5 9 4 20 -3 10 -7 18 -14 16
-15z m-8915 -20 c13 -16 12 -17 -3 -4 -17 13 -22 21 -14 21 2 0 10 -8 17 -17z
m9043 -385 c-3 -5 -11 -8 -17 -8 -9 0 -9 2 0 8 8 5 9 13 3 22 -6 8 -10 20 -9
25 0 6 6 -1 13 -15 8 -14 12 -28 10 -32z m-8801 -145 c-6 -15 -19 -17 -27 -4
-7 11 0 18 18 18 8 0 12 -6 9 -14z m8842 -72 c-8 -14 -25 -14 -25 0 0 5 5 7
10 4 6 -3 10 -1 10 6 0 7 3 10 6 6 3 -3 3 -10 -1 -16z m55 -103 c0 -19 -16 -5
-17 14 -2 18 0 20 7 8 5 -8 10 -18 10 -22z m-60 -132 c0 -3 -4 -8 -10 -11 -5
-3 -10 -1 -10 4 0 6 5 11 10 11 6 0 10 -2 10 -4z m-8540 -52 c0 -8 -19 -13
-24 -6 -3 5 1 9 9 9 8 0 15 -2 15 -3z m8545 -44 c3 -6 -1 -7 -9 -4 -18 7 -21
14 -7 14 6 0 13 -4 16 -10z m14 -101 c-11 -6 -10 -9 3 -14 14 -6 15 -10 5 -26
-6 -10 -16 -19 -21 -19 -4 0 -3 7 4 15 10 11 10 19 2 27 -13 13 -4 40 10 32 6
-4 5 -10 -3 -15z m-8404 2 c-3 -6 3 -14 12 -20 10 -6 13 -11 8 -11 -13 0 -35
20 -35 32 0 4 5 8 11 8 5 0 8 -4 4 -9z m8401 -73 c5 4 -1 -5 -14 -19 -12 -14
-19 -29 -15 -34 5 -4 3 -5 -4 -1 -14 8 -6 36 9 36 6 0 4 8 -3 18 -12 15 -12
16 2 5 9 -7 20 -9 25 -5z m-8256 -58 c0 -5 -2 -10 -4 -10 -3 0 -8 5 -11 10 -3
6 -1 10 4 10 6 0 11 -4 11 -10z m8225 -20 c-3 -5 -11 -10 -16 -10 -6 0 -7 5
-4 10 3 6 11 10 16 10 6 0 7 -4 4 -10z m-8051 -91 c-3 -5 -10 -7 -15 -3 -5 3
-7 10 -3 15 3 5 10 7 15 3 5 -3 7 -10 3 -15z m151 -79 c3 -6 -1 -7 -9 -4 -18
7 -21 14 -7 14 6 0 13 -4 16 -10z m455 -195 c0 -8 -2 -15 -4 -15 -2 0 -6 7
-10 15 -3 8 -1 15 4 15 6 0 10 -7 10 -15z m160 -39 c0 -3 -4 -8 -10 -11 -5 -3
-10 -1 -10 4 0 6 5 11 10 11 6 0 10 -2 10 -4z m157 -20 c0 -8 -6 -12 -15 -9
-11 5 -11 7 0 14 7 5 13 9 14 9 0 0 1 -6 1 -14z m7030 -45 c-1 -12 -6 -17 -16
-13 -12 4 -12 7 -2 10 11 4 11 6 0 13 -11 7 -10 9 3 9 10 0 16 -7 15 -19z
m-6746 -44 c-8 -8 -14 -7 -23 2 -11 10 -9 11 6 5 15 -6 17 -4 11 6 -6 9 -4 11
4 5 9 -5 10 -10 2 -18z m6554 -389 c-3 -12 -9 -26 -15 -32 -8 -8 -9 -6 -5 7 5
11 2 17 -6 17 -8 0 -5 6 7 15 24 18 24 19 19 -7z m-6582 -189 l22 -21 -22 11
c-13 6 -23 9 -23 6 0 -4 -5 -3 -10 0 -10 6 -5 25 6 25 3 0 15 -10 27 -21z m2
-129 c3 -6 -1 -7 -9 -4 -18 7 -21 14 -7 14 6 0 13 -4 16 -10z m6423 -7 c-5 -7
-14 -10 -19 -7 -16 10 -9 23 10 21 15 -1 17 -4 9 -14z m-181 -238 c0 -8 -4
-12 -9 -9 -5 3 -6 10 -3 15 9 13 12 11 12 -6z m-6296 -38 c-10 -9 -11 -8 -5 6
3 10 9 15 12 12 3 -3 0 -11 -7 -18z m37 1 c-2 -7 3 -12 10 -10 8 1 11 -2 7 -7
-8 -14 -35 -2 -35 15 0 8 5 14 10 14 6 0 9 -6 8 -12z m36 -36 c3 -5 -1 -9 -9
-9 -8 0 -12 4 -9 9 3 4 7 8 9 8 2 0 6 -4 9 -8z m46 -142 c0 -5 -2 -10 -4 -10
-3 0 -8 5 -11 10 -3 6 -1 10 4 10 6 0 11 -4 11 -10z m5860 -161 c0 -5 -7 -9
-15 -9 -15 0 -20 12 -9 23 8 8 24 -1 24 -14z m-5850 -53 c0 -2 -8 -10 -17 -17
-16 -13 -17 -12 -4 4 13 16 21 21 21 13z m4 -41 c-7 -16 -24 -21 -24 -6 0 8 7
13 27 20 1 1 0 -6 -3 -14z m5766 11 c0 -3 -4 -8 -10 -11 -5 -3 -10 -1 -10 4 0
6 5 11 10 11 6 0 10 -2 10 -4z m-5650 -18 c0 -4 -4 -8 -9 -8 -6 0 -12 4 -15 8
-3 5 1 9 9 9 8 0 15 -4 15 -9z m10 -72 c0 -3 -4 -8 -10 -11 -5 -3 -10 -1 -10
4 0 6 5 11 10 11 6 0 10 -2 10 -4z m5417 -126 c3 -10 2 -11 -4 -4 -4 6 -15 14
-23 17 -11 5 -9 6 4 4 11 -1 21 -9 23 -17z m-5332 -28 c-3 -3 -11 0 -18 7 -9
10 -8 11 6 5 10 -3 15 -9 12 -12z m70 -60 c-3 -3 -11 0 -18 7 -9 10 -8 11 6 5
10 -3 15 -9 12 -12z m-24 -45 c-10 -9 -11 -8 -5 6 3 10 9 15 12 12 3 -3 0 -11
-7 -18z m5149 -7 c0 -5 -5 -10 -11 -10 -5 0 -7 5 -4 10 3 6 8 10 11 10 2 0 4
-4 4 -10z m-100 -15 c0 -8 -4 -15 -10 -15 -5 0 -7 7 -4 15 4 8 8 15 10 15 2 0
4 -7 4 -15z m-182 -165 c-2 -5 2 -9 7 -7 6 1 9 4 8 7 -1 3 7 7 18 7 18 2 18 0
-3 -17 -16 -13 -27 -15 -35 -8 -7 6 -10 14 -7 19 7 12 15 11 12 -1z m-4393
-172 c5 4 5 1 1 -6 -6 -10 -11 -10 -22 -1 -8 6 -14 14 -14 16 0 3 6 0 13 -6 8
-6 18 -7 22 -3z m75 -68 c0 -5 -2 -10 -4 -10 -3 0 -8 5 -11 10 -3 6 -1 10 4
10 6 0 11 -4 11 -10z m120 -164 c0 -8 -7 -16 -15 -20 -12 -4 -13 -2 -2 14 14
24 17 25 17 6z m254 -117 c-3 -5 -10 -7 -15 -3 -5 3 -7 10 -3 15 3 5 10 7 15
3 5 -3 7 -10 3 -15z m2866 -15 c0 -8 -19 -13 -24 -6 -3 5 1 9 9 9 8 0 15 -2
15 -3z m-87 -17 c4 3 7 1 7 -5 0 -27 -32 -21 -38 7 -2 11 0 12 11 3 8 -7 17
-9 20 -5z m-2533 -33 c0 -8 -19 -13 -24 -6 -3 5 1 9 9 9 8 0 15 -2 15 -3z
m184 -12 c3 -5 -1 -9 -9 -9 -8 0 -15 4 -15 9 0 4 4 8 9 8 6 0 12 -4 15 -8z
m149 -12 c4 0 5 6 2 13 -4 6 2 2 13 -10 11 -12 23 -19 27 -15 5 4 5 1 1 -5 -4
-8 -2 -13 6 -13 9 0 9 -3 -2 -10 -13 -8 -8 -14 10 -12 3 0 7 -9 7 -20 2 -20 1
-20 -15 3 -9 13 -17 26 -18 29 -4 21 -18 38 -28 34 -7 -3 -19 3 -26 13 -12 15
-12 16 0 6 8 -7 18 -13 23 -13z m2005 -17 c-8 -10 -14 -11 -16 -4 -2 6 -9 8
-14 5 -7 -4 -8 -2 -4 4 4 6 14 8 24 5 15 -6 16 -5 2 13 -14 18 -14 18 3 5 14
-11 15 -17 5 -28z m-161 10 c0 -7 -4 -13 -8 -13 -4 0 -9 6 -12 13 -3 8 0 14 7
14 7 0 13 -6 13 -14z m-37 -1 c0 -5 -7 -9 -15 -9 -8 0 -12 4 -9 9 3 4 9 8 15
8 5 0 9 -4 9 -8z m-1935 -14 c5 4 5 2 2 -5 -6 -9 -18 -10 -45 -4 -2 1 0 6 3
11 5 8 11 8 19 1 7 -6 17 -7 21 -3z m32 -13 c0 -8 -4 -12 -9 -9 -4 3 -8 9 -8
15 0 5 4 9 8 9 5 0 9 -7 9 -15z m1998 -14 c-6 -5 -25 10 -25 20 0 5 6 4 14 -3
8 -7 12 -15 11 -17z m58 -15 c-3 -4 -9 -2 -14 5 -13 22 -11 31 5 17 8 -7 12
-17 9 -22z m-1663 -16 c-6 -11 -13 -20 -16 -20 -2 0 0 9 6 20 6 11 13 20 16
20 2 0 0 -9 -6 -20z m357 -15 c0 -8 -4 -12 -9 -9 -5 3 -6 10 -3 15 9 13 12 11
12 -6z m498 -15 c-3 -5 -12 -10 -18 -10 -7 0 -6 4 3 10 19 12 23 12 15 0z"/>
<path d="M3025 8419 c-11 -16 -1 -19 13 -3 7 8 8 14 3 14 -5 0 -13 -5 -16 -11z"/>
<path d="M3067 8407 c4 -7 -1 -8 -13 -3 -15 6 -17 5 -6 -5 10 -11 15 -10 28 2
13 14 13 16 0 16 -8 0 -12 -5 -9 -10z"/>
<path d="M3379 8363 c-13 -16 -12 -17 4 -4 16 13 21 21 13 21 -2 0 -10 -8 -17
-17z"/>
<path d="M3570 8309 c0 -5 5 -7 10 -4 6 3 10 8 10 11 0 2 -4 4 -10 4 -5 0 -10
-5 -10 -11z"/>
<path d="M3875 8230 c3 -5 8 -10 11 -10 2 0 4 5 4 10 0 6 -5 10 -11 10 -5 0
-7 -4 -4 -10z"/>
<path d="M4130 8130 c-9 -6 -10 -10 -3 -10 6 0 15 5 18 10 8 12 4 12 -15 0z"/>
<path d="M1830 8116 c0 -2 7 -7 16 -10 8 -3 12 -2 9 4 -6 10 -25 14 -25 6z"/>
<path d="M4200 8093 c0 -5 9 -18 20 -28 11 -10 20 -16 20 -13 0 3 -9 15 -20
28 -11 13 -20 19 -20 13z"/>
<path d="M4285 8050 c-3 -5 9 -16 27 -25 29 -14 30 -14 14 0 -11 8 -24 15 -29
15 -4 0 -5 5 -2 10 3 6 4 10 1 10 -3 0 -7 -4 -11 -10z"/>
<path d="M4500 7932 c0 -5 7 -15 15 -22 8 -7 15 -9 15 -6 0 4 -7 14 -15 22 -8
9 -15 11 -15 6z"/>
<path d="M5050 7530 c0 -5 5 -10 11 -10 5 0 7 5 4 10 -3 6 -8 10 -11 10 -2 0
-4 -4 -4 -10z"/>
<path d="M1450 7430 c0 -5 5 -10 11 -10 5 0 7 5 4 10 -3 6 -8 10 -11 10 -2 0
-4 -4 -4 -10z"/>
<path d="M5195 7390 c3 -5 8 -10 11 -10 2 0 4 5 4 10 0 6 -5 10 -11 10 -5 0
-7 -4 -4 -10z"/>
<path d="M5290 7306 c0 -2 6 -9 14 -15 11 -9 16 -9 22 0 4 8 3 9 -4 5 -7 -4
-12 -2 -12 3 0 6 -4 11 -10 11 -5 0 -10 -2 -10 -4z"/>
<path d="M1223 7208 c1 -8 -6 -12 -18 -10 -16 2 -17 1 -5 -7 9 -6 19 -6 26 -1
6 6 15 6 20 2 4 -4 2 1 -5 11 -16 20 -22 22 -18 5z"/>
<path d="M1131 7183 c-8 -13 -13 -15 -19 -6 -6 9 -11 7 -20 -7 -6 -10 -8 -21
-4 -24 11 -7 69 40 60 49 -3 4 -11 -2 -17 -12z"/>
<path d="M5475 7100 c3 -5 8 -10 11 -10 2 0 4 5 4 10 0 6 -5 10 -11 10 -5 0
-7 -4 -4 -10z"/>
<path d="M5530 7050 c0 -5 5 -10 11 -10 5 0 7 5 4 10 -3 6 -8 10 -11 10 -2 0
-4 -4 -4 -10z"/>
<path d="M5545 7020 c-3 -6 1 -7 9 -4 18 7 21 14 7 14 -6 0 -13 -4 -16 -10z"/>
<path d="M590 6949 c0 -5 5 -7 10 -4 6 3 10 8 10 11 0 2 -4 4 -10 4 -5 0 -10
-5 -10 -11z"/>
<path d="M5620 6930 c0 -5 5 -10 11 -10 5 0 7 5 4 10 -3 6 -8 10 -11 10 -2 0
-4 -4 -4 -10z"/>
<path d="M5739 6766 c26 -27 41 -33 41 -15 0 5 -5 7 -10 4 -6 -3 -13 0 -16 9
-3 8 -13 17 -22 21 -11 4 -9 -2 7 -19z"/>
<path d="M245 6601 c-3 -5 -2 -12 3 -15 5 -3 9 1 9 9 0 17 -3 19 -12 6z"/>
<path d="M5866 6561 c-3 -4 3 -16 13 -25 15 -14 21 -15 27 -4 4 7 4 10 0 6
-10 -8 -36 14 -29 25 2 4 2 7 -1 7 -3 0 -7 -4 -10 -9z"/>
<path d="M170 6488 c0 -4 4 -8 9 -8 6 0 12 4 15 8 3 5 -1 9 -9 9 -8 0 -15 -4
-15 -9z"/>
<path d="M6675 6420 c-4 -6 -12 -7 -18 -3 -7 4 -6 -1 2 -10 15 -19 24 -16 27
8 3 17 -2 19 -11 5z"/>
<path d="M6901 6414 c0 -11 3 -14 6 -6 3 7 2 16 -1 19 -3 4 -6 -2 -5 -13z"/>
<path d="M6345 6410 c-3 -5 -2 -10 4 -10 5 0 13 5 16 10 3 6 2 10 -4 10 -5 0
-13 -4 -16 -10z"/>
<path d="M6628 6403 c-3 -12 0 -20 8 -20 16 0 17 6 5 25 -6 11 -9 9 -13 -5z"/>
<path d="M6387 6397 c-3 -7 3 -13 14 -13 13 0 15 3 7 13 -6 7 -12 13 -13 13
-2 0 -5 -6 -8 -13z"/>
<path d="M6210 6325 c0 -8 4 -15 10 -15 5 0 7 7 4 15 -4 8 -8 15 -10 15 -2 0
-4 -7 -4 -15z"/>
<path d="M8265 6271 c-3 -5 -2 -12 3 -15 5 -3 9 1 9 9 0 17 -3 19 -12 6z"/>
<path d="M8460 6211 c0 -7 -5 -9 -12 -5 -7 5 -8 3 -3 -5 5 -9 10 -10 18 -2 6
6 8 14 4 18 -4 3 -7 1 -7 -6z"/>
<path d="M8728 6026 c-10 -7 -15 -16 -12 -19 4 -3 13 1 21 9 20 19 13 26 -9
10z"/>
<path d="M98 5983 c7 -3 16 -2 19 1 4 3 -2 6 -13 5 -11 0 -14 -3 -6 -6z"/>
<path d="M8775 5950 c3 -5 8 -10 11 -10 2 0 4 5 4 10 0 6 -5 10 -11 10 -5 0
-7 -4 -4 -10z"/>
<path d="M8945 5779 c-11 -16 -1 -19 13 -3 7 8 8 14 3 14 -5 0 -13 -5 -16 -11z"/>
<path d="M9175 5340 c3 -5 8 -10 11 -10 2 0 4 5 4 10 0 6 -5 10 -11 10 -5 0
-7 -4 -4 -10z"/>
<path d="M9236 5293 c-6 -14 -5 -15 5 -6 7 7 10 15 7 18 -3 3 -9 -2 -12 -12z"/>
<path d="M9276 5091 c-3 -5 2 -15 12 -22 15 -12 16 -12 5 2 -7 9 -10 19 -6 22
3 4 4 7 0 7 -3 0 -8 -4 -11 -9z"/>
<path d="M9325 4910 c-16 -7 -17 -9 -3 -9 9 -1 20 4 23 9 7 11 7 11 -20 0z"/>
<path d="M1111 4335 c0 -5 6 -19 14 -29 8 -11 15 -15 15 -10 0 6 -7 19 -15 30
-8 10 -14 15 -14 9z"/>
<path d="M9295 4259 c-4 -6 -5 -12 -2 -15 2 -3 7 2 10 11 7 17 1 20 -8 4z"/>
<path d="M1280 4210 c-9 -6 -10 -10 -3 -10 6 0 15 5 18 10 8 12 4 12 -15 0z"/>
<path d="M9264 4176 c-14 -11 -16 -18 -8 -26 12 -12 26 1 30 28 3 15 2 15 -22
-2z"/>
<path d="M1466 4112 c-3 -5 1 -9 9 -9 8 0 12 4 9 9 -3 4 -7 8 -9 8 -2 0 -6 -4
-9 -8z"/>
<path d="M9184 4058 c-7 -11 18 -10 36 2 11 7 10 9 -8 7 -13 -1 -26 -5 -28 -9z"/>
<path d="M1636 4028 c3 -5 10 -6 15 -3 13 9 11 12 -6 12 -8 0 -12 -4 -9 -9z"/>
<path d="M9195 4019 c-4 -6 -5 -12 -2 -15 2 -3 7 2 10 11 7 17 1 20 -8 4z"/>
<path d="M1915 3950 c-3 -5 -1 -10 4 -10 6 0 11 5 11 10 0 6 -2 10 -4 10 -3 0
-8 -4 -11 -10z"/>
<path d="M2086 3917 c3 -10 9 -15 12 -12 3 3 0 11 -7 18 -10 9 -11 8 -5 -6z"/>
<path d="M2356 3862 c-3 -5 1 -9 9 -9 8 0 12 4 9 9 -3 4 -7 8 -9 8 -2 0 -6 -4
-9 -8z"/>
<path d="M2350 3836 c0 -2 9 -6 20 -9 11 -3 18 -1 14 4 -5 9 -34 13 -34 5z"/>
<path d="M9110 3791 c0 -6 4 -13 10 -16 6 -3 7 1 4 9 -7 18 -14 21 -14 7z"/>
<path d="M9076 3751 c-3 -5 1 -14 9 -21 10 -9 15 -9 15 -1 0 6 -5 11 -11 11
-5 0 -7 5 -4 10 3 6 4 10 1 10 -3 0 -7 -4 -10 -9z"/>
<path d="M2374 3708 c-4 -7 -3 -8 4 -4 16 10 15 -6 0 -24 -7 -8 -3 -6 10 4 26
23 26 22 7 29 -8 4 -17 1 -21 -5z"/>
<path d="M9099 3683 c-13 -16 -12 -17 4 -4 16 13 21 21 13 21 -2 0 -10 -8 -17
-17z"/>
<path d="M9011 3454 c0 -11 3 -14 6 -6 3 7 2 16 -1 19 -3 4 -6 -2 -5 -13z"/>
<path d="M8992 3402 c-22 -17 -22 -18 -3 -18 11 0 18 2 16 5 -3 2 0 10 6 18
15 18 9 16 -19 -5z"/>
<path d="M8907 3346 c-4 -10 -1 -13 8 -9 8 3 12 9 9 14 -7 12 -11 11 -17 -5z"/>
<path d="M2333 3330 c-1 -11 2 -20 7 -20 4 0 7 7 6 15 -3 23 -12 26 -13 5z"/>
<path d="M8895 3291 c-3 -5 0 -13 6 -17 7 -4 9 -3 5 4 -3 5 0 13 6 15 9 4 10
6 1 6 -6 1 -14 -3 -18 -8z"/>
<path d="M8868 3155 c-2 -6 4 -19 15 -29 16 -15 19 -16 14 -3 -3 8 -3 18 1 20
4 2 2 2 -5 1 -6 -2 -13 2 -16 9 -2 6 -6 7 -9 2z"/>
<path d="M2340 3135 c0 -8 4 -15 10 -15 5 0 7 7 4 15 -4 8 -8 15 -10 15 -2 0
-4 -7 -4 -15z"/>
<path d="M8747 3127 c-3 -8 -1 -20 5 -28 8 -11 9 -10 4 5 -5 13 -2 17 8 13 10
-4 13 -1 9 9 -7 18 -19 18 -26 1z"/>
<path d="M8857 3123 c-4 -3 -7 -11 -7 -17 0 -6 5 -5 12 2 6 6 9 14 7 17 -3 3
-9 2 -12 -2z"/>
<path d="M8723 3095 c0 -8 4 -15 9 -15 4 0 8 4 8 9 0 6 -4 12 -8 15 -5 3 -9
-1 -9 -9z"/>
<path d="M2364 3058 c3 -15 26 -23 26 -8 0 6 -4 9 -9 6 -5 -4 -12 -1 -14 4 -3
6 -4 5 -3 -2z"/>
<path d="M8678 2993 c7 -3 16 -2 19 1 4 3 -2 6 -13 5 -11 0 -14 -3 -6 -6z"/>
<path d="M2321 2964 c7 -9 5 -15 -8 -23 -10 -6 -12 -11 -5 -11 6 0 12 -5 12
-11 0 -5 -4 -8 -8 -5 -4 2 -14 1 -21 -3 -10 -7 -9 -9 2 -14 9 -3 21 1 29 10
17 21 18 70 1 70 -9 0 -10 -4 -2 -13z"/>
<path d="M8670 2906 c0 -2 7 -9 15 -16 13 -11 14 -10 9 4 -5 14 -24 23 -24 12z"/>
<path d="M2267 2889 c7 -7 15 -10 18 -7 3 3 -2 9 -12 12 -14 6 -15 5 -6 -5z"/>
<path d="M2299 2873 c0 -5 -2 -16 -4 -26 -3 -15 -1 -16 11 -6 7 6 12 15 9 19
-3 5 1 11 7 13 8 3 6 6 -4 6 -10 1 -18 -2 -19 -6z"/>
<path d="M2315 2810 c-3 -5 -1 -10 4 -10 6 0 11 5 11 10 0 6 -2 10 -4 10 -3 0
-8 -4 -11 -10z"/>
<path d="M2390 2772 c0 -5 7 -17 16 -28 15 -18 15 -18 5 2 -6 12 -7 24 -4 28
3 3 1 6 -5 6 -7 0 -12 -4 -12 -8z"/>
<path d="M8464 2719 c-4 -7 -3 -9 4 -5 5 3 13 0 15 -6 4 -9 6 -10 6 -1 1 17
-16 25 -25 12z"/>
<path d="M2403 2712 c-8 -5 -7 -11 2 -19 10 -10 14 -9 19 2 6 17 -5 26 -21 17z"/>
<path d="M2431 2577 c-13 -21 -12 -21 5 -5 10 10 16 20 13 22 -3 3 -11 -5 -18
-17z"/>
<path d="M2436 2552 c-3 -5 1 -9 9 -9 8 0 12 4 9 9 -3 4 -7 8 -9 8 -2 0 -6 -4
-9 -8z"/>
<path d="M2416 2472 c-3 -5 1 -9 9 -9 8 0 12 4 9 9 -3 4 -7 8 -9 8 -2 0 -6 -4
-9 -8z"/>
<path d="M8165 2400 c-3 -5 -1 -10 4 -10 6 0 11 5 11 10 0 6 -2 10 -4 10 -3 0
-8 -4 -11 -10z"/>
<path d="M8195 2400 c-3 -5 -1 -10 4 -10 6 0 11 5 11 10 0 6 -2 10 -4 10 -3 0
-8 -4 -11 -10z"/>
<path d="M2513 2377 l-23 -12 23 -14 c21 -13 21 -13 7 4 -14 17 -13 18 3 12
11 -4 17 -2 17 8 0 18 1 18 -27 2z"/>
<path d="M2605 2199 c-18 -9 -18 -9 3 -5 20 4 23 1 19 -15 -4 -15 -2 -18 7
-10 7 6 17 7 22 3 5 -4 0 3 -10 16 -11 12 -20 22 -20 21 -1 0 -10 -5 -21 -10z"/>
<path d="M7910 2069 c0 -5 5 -7 10 -4 6 3 10 8 10 11 0 2 -4 4 -10 4 -5 0 -10
-5 -10 -11z"/>
<path d="M7820 2040 c-8 -5 -12 -12 -9 -15 4 -3 12 1 19 10 14 17 11 19 -10 5z"/>
<path d="M2775 2009 c-4 -6 -5 -12 -2 -15 2 -3 7 2 10 11 7 17 1 20 -8 4z"/>
<path d="M2807 1899 c6 -6 10 -17 9 -23 -2 -6 -1 -8 1 -4 3 4 10 2 18 -5 7 -7
10 -16 7 -21 -3 -5 0 -6 6 -2 14 8 -13 51 -38 61 -11 5 -12 3 -3 -6z"/>
<path d="M7555 1860 c-4 -6 -9 -8 -13 -6 -4 2 -15 -6 -24 -18 -13 -18 -13 -23
-3 -23 8 0 13 5 12 11 -1 6 6 10 16 10 10 -1 16 1 13 4 -3 3 -1 11 5 19 6 7 9
13 6 13 -3 0 -9 -5 -12 -10z"/>
<path d="M2880 1850 c-8 -5 -12 -12 -9 -15 4 -3 12 1 19 10 14 17 11 19 -10 5z"/>
<path d="M2903 1840 c-9 -14 -10 -21 -1 -26 6 -4 8 -3 4 4 -3 6 -1 14 5 18 6
3 15 1 19 -6 5 -8 9 -7 13 5 4 9 3 13 -3 10 -6 -3 -10 -1 -10 4 0 17 -14 13
-27 -9z"/>
<path d="M3074 1770 c0 -13 4 -16 10 -10 7 7 7 13 0 20 -6 6 -10 3 -10 -10z"/>
<path d="M7355 1730 c-3 -5 -1 -10 4 -10 6 0 11 5 11 10 0 6 -2 10 -4 10 -3 0
-8 -4 -11 -10z"/>
<path d="M7400 1730 c-9 -6 -10 -10 -3 -10 6 0 15 5 18 10 8 12 4 12 -15 0z"/>
<path d="M3205 1680 c-16 -7 -17 -9 -3 -9 9 -1 20 4 23 9 7 11 7 11 -20 0z"/>
<path d="M7190 1661 c0 -5 7 -12 16 -15 14 -5 15 -4 4 9 -14 17 -20 19 -20 6z"/>
<path d="M7175 1630 c3 -5 8 -10 11 -10 2 0 4 5 4 10 0 6 -5 10 -11 10 -5 0
-7 -4 -4 -10z"/>
<path d="M3340 1552 c0 -5 7 -9 15 -9 8 0 12 4 9 9 -3 4 -9 8 -15 8 -5 0 -9
-4 -9 -8z"/>
<path d="M3490 1488 c0 -4 4 -8 9 -8 6 0 12 4 15 8 3 5 -1 9 -9 9 -8 0 -15 -4
-15 -9z"/>
<path d="M6930 1475 c-7 -9 -8 -15 -2 -15 5 0 12 7 16 15 3 8 4 15 2 15 -2 0
-9 -7 -16 -15z"/>
<path d="M3563 1460 c1 -11 5 -20 9 -20 3 0 6 9 5 20 -1 11 -5 20 -9 20 -3 0
-6 -9 -5 -20z"/>
<path d="M3470 1451 c0 -6 4 -12 8 -15 5 -3 9 1 9 9 0 8 -4 15 -9 15 -4 0 -8
-4 -8 -9z"/>
<path d="M6742 1439 c-8 -12 -9 -18 -4 -15 6 3 12 3 15 -1 2 -5 2 -2 1 5 -2 6
1 12 6 12 6 0 10 5 10 10 0 17 -14 11 -28 -11z"/>
<path d="M3750 1371 c0 -5 5 -13 10 -16 6 -3 10 -2 10 4 0 5 -4 13 -10 16 -5
3 -10 2 -10 -4z"/>
<path d="M3699 1353 c-10 -12 -10 -15 -1 -9 7 4 12 2 12 -6 0 -10 2 -10 9 1 5
7 14 10 20 7 6 -4 11 -5 11 -2 0 3 -9 10 -19 15 -14 8 -22 7 -32 -6z"/>
<path d="M3790 1350 c-15 -9 -10 -11 25 -10 12 1 33 -26 27 -34 -3 -5 0 -6 7
-2 9 6 8 13 -5 27 -9 10 -20 16 -24 14 -5 -3 -10 -1 -12 5 -2 6 -8 6 -18 0z"/>
<path d="M3806 1312 c-3 -5 1 -9 9 -9 8 0 12 4 9 9 -3 4 -7 8 -9 8 -2 0 -6 -4
-9 -8z"/>
<path d="M6266 1311 c-3 -5 1 -14 9 -21 10 -9 15 -9 15 -1 0 6 -5 11 -11 11
-5 0 -7 5 -4 10 3 6 4 10 1 10 -3 0 -7 -4 -10 -9z"/>
<path d="M4017 1303 c-3 -5 3 -19 14 -32 10 -13 19 -18 19 -13 0 6 -5 14 -10
17 -6 4 -8 10 -5 15 3 5 1 11 -4 14 -5 4 -12 3 -14 -1z"/>
<path d="M3950 1296 c0 -2 7 -7 16 -10 8 -3 12 -2 9 4 -6 10 -25 14 -25 6z"/>
<path d="M4181 1271 c-8 -5 -9 -11 -3 -15 5 -3 12 1 16 9 6 17 6 18 -13 6z"/>
<path d="M4106 1208 c3 -5 10 -6 15 -3 13 9 11 12 -6 12 -8 0 -12 -4 -9 -9z"/>
<path d="M4813 1175 c0 -8 4 -12 9 -9 4 3 8 9 8 15 0 5 -4 9 -8 9 -5 0 -9 -7
-9 -15z"/>
<path d="M5182 1177 c-8 -9 -8 -17 0 -27 8 -13 9 -12 4 2 -3 11 1 18 12 20 11
2 13 6 6 11 -7 4 -16 1 -22 -6z"/>
<path d="M5713 1173 c0 -9 4 -10 13 -2 7 6 19 7 25 3 7 -4 9 -3 5 4 -9 15 -43
11 -43 -5z"/>
<path d="M4550 1161 c0 -6 6 -11 13 -11 8 0 7 -4 -3 -10 -9 -6 -10 -10 -3 -10
19 0 24 17 8 30 -10 9 -15 9 -15 1z"/>
<path d="M4674 1145 c-18 -14 -18 -14 4 -8 12 3 22 9 22 14 0 12 -3 11 -26 -6z"/>
<path d="M4310 1136 c0 -2 7 -7 16 -10 8 -3 12 -2 9 4 -6 10 -25 14 -25 6z"/>
<path d="M4670 1120 c-9 -6 -10 -10 -3 -10 6 0 15 5 18 10 8 12 4 12 -15 0z"/>
</g>
</svg>
